ISO-10303-21;
HEADER;
/* Generated by software containing ST-Developer
 * from STEP Tools, Inc. (www.steptools.com) 
 */

FILE_DESCRIPTION(
/* description */ (''),
/* implementation_level */ '2;1');

FILE_NAME(
/* name */ 'BeePad2Bottom.step',
/* time_stamp */ '2026-09-26T22:53:54+02:00',
/* author */ (''),
/* organization */ (''),
/* preprocessor_version */ 'ST-DEVELOPER v20.2',
/* originating_system */ 'Autodesk Translation Framework v15.15.0.0',
/* authorisation */ '');

FILE_SCHEMA (('AUTOMOTIVE_DESIGN { 1 0 10303 214 3 1 1 }'));
ENDSEC;

DATA;
#10=MECHANICAL_DESIGN_GEOMETRIC_PRESENTATION_REPRESENTATION('',(#13),#1117);
#11=SHAPE_REPRESENTATION_RELATIONSHIP('SRR','None',#1124,#12);
#12=ADVANCED_BREP_SHAPE_REPRESENTATION('',(#14),#1116);
#13=STYLED_ITEM('',(#1134),#14);
#14=MANIFOLD_SOLID_BREP('Body1',#681);
#15=FACE_BOUND('',#106,.T.);
#16=FACE_BOUND('',#107,.T.);
#17=FACE_BOUND('',#108,.T.);
#18=FACE_BOUND('',#109,.T.);
#19=FACE_BOUND('',#110,.T.);
#20=FACE_BOUND('',#111,.T.);
#21=FACE_BOUND('',#112,.T.);
#22=FACE_BOUND('',#135,.T.);
#23=PLANE('',#698);
#24=PLANE('',#702);
#25=PLANE('',#706);
#26=PLANE('',#710);
#27=PLANE('',#714);
#28=PLANE('',#718);
#29=PLANE('',#719);
#30=PLANE('',#720);
#31=PLANE('',#721);
#32=PLANE('',#722);
#33=PLANE('',#723);
#34=PLANE('',#724);
#35=PLANE('',#725);
#36=PLANE('',#726);
#37=PLANE('',#727);
#38=PLANE('',#728);
#39=PLANE('',#729);
#40=PLANE('',#730);
#41=PLANE('',#731);
#42=PLANE('',#732);
#43=PLANE('',#733);
#44=PLANE('',#734);
#45=PLANE('',#735);
#46=PLANE('',#736);
#47=PLANE('',#737);
#48=PLANE('',#738);
#49=PLANE('',#739);
#50=PLANE('',#740);
#51=PLANE('',#741);
#52=PLANE('',#742);
#53=PLANE('',#743);
#54=PLANE('',#744);
#55=FACE_OUTER_BOUND('',#93,.T.);
#56=FACE_OUTER_BOUND('',#94,.T.);
#57=FACE_OUTER_BOUND('',#95,.T.);
#58=FACE_OUTER_BOUND('',#96,.T.);
#59=FACE_OUTER_BOUND('',#97,.T.);
#60=FACE_OUTER_BOUND('',#98,.T.);
#61=FACE_OUTER_BOUND('',#99,.T.);
#62=FACE_OUTER_BOUND('',#100,.T.);
#63=FACE_OUTER_BOUND('',#101,.T.);
#64=FACE_OUTER_BOUND('',#102,.T.);
#65=FACE_OUTER_BOUND('',#103,.T.);
#66=FACE_OUTER_BOUND('',#104,.T.);
#67=FACE_OUTER_BOUND('',#105,.T.);
#68=FACE_OUTER_BOUND('',#113,.T.);
#69=FACE_OUTER_BOUND('',#114,.T.);
#70=FACE_OUTER_BOUND('',#115,.T.);
#71=FACE_OUTER_BOUND('',#116,.T.);
#72=FACE_OUTER_BOUND('',#117,.T.);
#73=FACE_OUTER_BOUND('',#118,.T.);
#74=FACE_OUTER_BOUND('',#119,.T.);
#75=FACE_OUTER_BOUND('',#120,.T.);
#76=FACE_OUTER_BOUND('',#121,.T.);
#77=FACE_OUTER_BOUND('',#122,.T.);
#78=FACE_OUTER_BOUND('',#123,.T.);
#79=FACE_OUTER_BOUND('',#124,.T.);
#80=FACE_OUTER_BOUND('',#125,.T.);
#81=FACE_OUTER_BOUND('',#126,.T.);
#82=FACE_OUTER_BOUND('',#127,.T.);
#83=FACE_OUTER_BOUND('',#128,.T.);
#84=FACE_OUTER_BOUND('',#129,.T.);
#85=FACE_OUTER_BOUND('',#130,.T.);
#86=FACE_OUTER_BOUND('',#131,.T.);
#87=FACE_OUTER_BOUND('',#132,.T.);
#88=FACE_OUTER_BOUND('',#133,.T.);
#89=FACE_OUTER_BOUND('',#134,.T.);
#90=FACE_OUTER_BOUND('',#136,.T.);
#91=FACE_OUTER_BOUND('',#137,.T.);
#92=FACE_OUTER_BOUND('',#138,.T.);
#93=EDGE_LOOP('',(#457,#458,#459,#460));
#94=EDGE_LOOP('',(#461));
#95=EDGE_LOOP('',(#462,#463,#464,#465));
#96=EDGE_LOOP('',(#466));
#97=EDGE_LOOP('',(#467,#468,#469,#470));
#98=EDGE_LOOP('',(#471));
#99=EDGE_LOOP('',(#472,#473,#474,#475));
#100=EDGE_LOOP('',(#476));
#101=EDGE_LOOP('',(#477,#478,#479,#480));
#102=EDGE_LOOP('',(#481));
#103=EDGE_LOOP('',(#482,#483,#484,#485));
#104=EDGE_LOOP('',(#486));
#105=EDGE_LOOP('',(#487,#488,#489,#490,#491,#492));
#106=EDGE_LOOP('',(#493));
#107=EDGE_LOOP('',(#494));
#108=EDGE_LOOP('',(#495));
#109=EDGE_LOOP('',(#496,#497,#498,#499,#500,#501));
#110=EDGE_LOOP('',(#502));
#111=EDGE_LOOP('',(#503));
#112=EDGE_LOOP('',(#504));
#113=EDGE_LOOP('',(#505,#506,#507,#508));
#114=EDGE_LOOP('',(#509,#510,#511,#512));
#115=EDGE_LOOP('',(#513,#514,#515,#516,#517,#518,#519,#520));
#116=EDGE_LOOP('',(#521,#522,#523,#524));
#117=EDGE_LOOP('',(#525,#526,#527,#528));
#118=EDGE_LOOP('',(#529,#530,#531,#532));
#119=EDGE_LOOP('',(#533,#534,#535,#536));
#120=EDGE_LOOP('',(#537,#538,#539,#540));
#121=EDGE_LOOP('',(#541,#542,#543,#544));
#122=EDGE_LOOP('',(#545,#546,#547,#548));
#123=EDGE_LOOP('',(#549,#550,#551,#552));
#124=EDGE_LOOP('',(#553,#554,#555,#556,#557,#558,#559,#560));
#125=EDGE_LOOP('',(#561,#562,#563,#564));
#126=EDGE_LOOP('',(#565,#566,#567,#568));
#127=EDGE_LOOP('',(#569,#570,#571,#572,#573,#574,#575,#576));
#128=EDGE_LOOP('',(#577,#578,#579,#580,#581,#582,#583,#584));
#129=EDGE_LOOP('',(#585,#586,#587,#588,#589,#590,#591,#592,#593,#594,#595,
#596,#597,#598));
#130=EDGE_LOOP('',(#599,#600,#601,#602));
#131=EDGE_LOOP('',(#603,#604,#605,#606));
#132=EDGE_LOOP('',(#607,#608,#609,#610));
#133=EDGE_LOOP('',(#611,#612,#613,#614));
#134=EDGE_LOOP('',(#615,#616,#617,#618));
#135=EDGE_LOOP('',(#619,#620,#621,#622));
#136=EDGE_LOOP('',(#623,#624,#625,#626));
#137=EDGE_LOOP('',(#627,#628,#629,#630));
#138=EDGE_LOOP('',(#631,#632,#633,#634,#635,#636));
#139=LINE('',#930,#217);
#140=LINE('',#937,#218);
#141=LINE('',#944,#219);
#142=LINE('',#951,#220);
#143=LINE('',#958,#221);
#144=LINE('',#965,#222);
#145=LINE('',#971,#223);
#146=LINE('',#973,#224);
#147=LINE('',#975,#225);
#148=LINE('',#977,#226);
#149=LINE('',#979,#227);
#150=LINE('',#980,#228);
#151=LINE('',#983,#229);
#152=LINE('',#985,#230);
#153=LINE('',#987,#231);
#154=LINE('',#989,#232);
#155=LINE('',#991,#233);
#156=LINE('',#992,#234);
#157=LINE('',#996,#235);
#158=LINE('',#998,#236);
#159=LINE('',#1000,#237);
#160=LINE('',#1001,#238);
#161=LINE('',#1005,#239);
#162=LINE('',#1006,#240);
#163=LINE('',#1007,#241);
#164=LINE('',#1010,#242);
#165=LINE('',#1012,#243);
#166=LINE('',#1014,#244);
#167=LINE('',#1015,#245);
#168=LINE('',#1017,#246);
#169=LINE('',#1018,#247);
#170=LINE('',#1021,#248);
#171=LINE('',#1022,#249);
#172=LINE('',#1025,#250);
#173=LINE('',#1026,#251);
#174=LINE('',#1029,#252);
#175=LINE('',#1030,#253);
#176=LINE('',#1033,#254);
#177=LINE('',#1034,#255);
#178=LINE('',#1036,#256);
#179=LINE('',#1040,#257);
#180=LINE('',#1042,#258);
#181=LINE('',#1044,#259);
#182=LINE('',#1045,#260);
#183=LINE('',#1049,#261);
#184=LINE('',#1051,#262);
#185=LINE('',#1053,#263);
#186=LINE('',#1054,#264);
#187=LINE('',#1057,#265);
#188=LINE('',#1059,#266);
#189=LINE('',#1060,#267);
#190=LINE('',#1063,#268);
#191=LINE('',#1065,#269);
#192=LINE('',#1067,#270);
#193=LINE('',#1068,#271);
#194=LINE('',#1071,#272);
#195=LINE('',#1073,#273);
#196=LINE('',#1074,#274);
#197=LINE('',#1076,#275);
#198=LINE('',#1077,#276);
#199=LINE('',#1080,#277);
#200=LINE('',#1081,#278);
#201=LINE('',#1082,#279);
#202=LINE('',#1084,#280);
#203=LINE('',#1085,#281);
#204=LINE('',#1087,#282);
#205=LINE('',#1092,#283);
#206=LINE('',#1093,#284);
#207=LINE('',#1094,#285);
#208=LINE('',#1097,#286);
#209=LINE('',#1098,#287);
#210=LINE('',#1101,#288);
#211=LINE('',#1102,#289);
#212=LINE('',#1105,#290);
#213=LINE('',#1106,#291);
#214=LINE('',#1109,#292);
#215=LINE('',#1110,#293);
#216=LINE('',#1112,#294);
#217=VECTOR('',#751,2.75);
#218=VECTOR('',#760,2.75);
#219=VECTOR('',#769,2.75);
#220=VECTOR('',#778,2.75);
#221=VECTOR('',#787,2.75);
#222=VECTOR('',#796,2.75);
#223=VECTOR('',#803,10.);
#224=VECTOR('',#804,10.);
#225=VECTOR('',#805,10.);
#226=VECTOR('',#806,10.);
#227=VECTOR('',#807,10.);
#228=VECTOR('',#808,10.);
#229=VECTOR('',#809,10.);
#230=VECTOR('',#810,10.);
#231=VECTOR('',#811,10.);
#232=VECTOR('',#812,10.);
#233=VECTOR('',#813,10.);
#234=VECTOR('',#814,10.);
#235=VECTOR('',#817,10.);
#236=VECTOR('',#818,10.);
#237=VECTOR('',#819,10.);
#238=VECTOR('',#820,10.);
#239=VECTOR('',#823,10.);
#240=VECTOR('',#824,10.);
#241=VECTOR('',#825,10.);
#242=VECTOR('',#828,10.);
#243=VECTOR('',#829,10.);
#244=VECTOR('',#830,10.);
#245=VECTOR('',#831,10.);
#246=VECTOR('',#832,10.);
#247=VECTOR('',#833,10.);
#248=VECTOR('',#836,10.);
#249=VECTOR('',#837,10.);
#250=VECTOR('',#840,10.);
#251=VECTOR('',#841,10.);
#252=VECTOR('',#844,10.);
#253=VECTOR('',#845,10.);
#254=VECTOR('',#848,10.);
#255=VECTOR('',#849,10.);
#256=VECTOR('',#852,10.);
#257=VECTOR('',#855,10.);
#258=VECTOR('',#856,10.);
#259=VECTOR('',#857,10.);
#260=VECTOR('',#858,10.);
#261=VECTOR('',#861,10.);
#262=VECTOR('',#862,10.);
#263=VECTOR('',#863,10.);
#264=VECTOR('',#864,10.);
#265=VECTOR('',#867,10.);
#266=VECTOR('',#868,10.);
#267=VECTOR('',#869,10.);
#268=VECTOR('',#872,10.);
#269=VECTOR('',#873,10.);
#270=VECTOR('',#874,10.);
#271=VECTOR('',#875,10.);
#272=VECTOR('',#878,10.);
#273=VECTOR('',#879,10.);
#274=VECTOR('',#880,10.);
#275=VECTOR('',#883,10.);
#276=VECTOR('',#884,10.);
#277=VECTOR('',#887,10.);
#278=VECTOR('',#888,10.);
#279=VECTOR('',#889,10.);
#280=VECTOR('',#892,10.);
#281=VECTOR('',#893,10.);
#282=VECTOR('',#896,10.);
#283=VECTOR('',#901,10.);
#284=VECTOR('',#902,10.);
#285=VECTOR('',#903,10.);
#286=VECTOR('',#906,10.);
#287=VECTOR('',#907,10.);
#288=VECTOR('',#910,10.);
#289=VECTOR('',#911,10.);
#290=VECTOR('',#914,10.);
#291=VECTOR('',#915,10.);
#292=VECTOR('',#918,10.);
#293=VECTOR('',#919,10.);
#294=VECTOR('',#922,10.);
#295=CIRCLE('',#696,2.75);
#296=CIRCLE('',#697,2.75);
#297=CIRCLE('',#700,2.75);
#298=CIRCLE('',#701,2.75);
#299=CIRCLE('',#704,2.75);
#300=CIRCLE('',#705,2.75);
#301=CIRCLE('',#708,2.75);
#302=CIRCLE('',#709,2.75);
#303=CIRCLE('',#712,2.75);
#304=CIRCLE('',#713,2.75);
#305=CIRCLE('',#716,2.75);
#306=CIRCLE('',#717,2.75);
#307=VERTEX_POINT('',#927);
#308=VERTEX_POINT('',#929);
#309=VERTEX_POINT('',#934);
#310=VERTEX_POINT('',#936);
#311=VERTEX_POINT('',#941);
#312=VERTEX_POINT('',#943);
#313=VERTEX_POINT('',#948);
#314=VERTEX_POINT('',#950);
#315=VERTEX_POINT('',#955);
#316=VERTEX_POINT('',#957);
#317=VERTEX_POINT('',#962);
#318=VERTEX_POINT('',#964);
#319=VERTEX_POINT('',#969);
#320=VERTEX_POINT('',#970);
#321=VERTEX_POINT('',#972);
#322=VERTEX_POINT('',#974);
#323=VERTEX_POINT('',#976);
#324=VERTEX_POINT('',#978);
#325=VERTEX_POINT('',#981);
#326=VERTEX_POINT('',#982);
#327=VERTEX_POINT('',#984);
#328=VERTEX_POINT('',#986);
#329=VERTEX_POINT('',#988);
#330=VERTEX_POINT('',#990);
#331=VERTEX_POINT('',#994);
#332=VERTEX_POINT('',#995);
#333=VERTEX_POINT('',#997);
#334=VERTEX_POINT('',#999);
#335=VERTEX_POINT('',#1003);
#336=VERTEX_POINT('',#1004);
#337=VERTEX_POINT('',#1009);
#338=VERTEX_POINT('',#1011);
#339=VERTEX_POINT('',#1013);
#340=VERTEX_POINT('',#1016);
#341=VERTEX_POINT('',#1020);
#342=VERTEX_POINT('',#1024);
#343=VERTEX_POINT('',#1028);
#344=VERTEX_POINT('',#1032);
#345=VERTEX_POINT('',#1038);
#346=VERTEX_POINT('',#1039);
#347=VERTEX_POINT('',#1041);
#348=VERTEX_POINT('',#1043);
#349=VERTEX_POINT('',#1047);
#350=VERTEX_POINT('',#1048);
#351=VERTEX_POINT('',#1050);
#352=VERTEX_POINT('',#1052);
#353=VERTEX_POINT('',#1056);
#354=VERTEX_POINT('',#1058);
#355=VERTEX_POINT('',#1062);
#356=VERTEX_POINT('',#1064);
#357=VERTEX_POINT('',#1066);
#358=VERTEX_POINT('',#1070);
#359=VERTEX_POINT('',#1072);
#360=VERTEX_POINT('',#1079);
#361=VERTEX_POINT('',#1090);
#362=VERTEX_POINT('',#1091);
#363=VERTEX_POINT('',#1096);
#364=VERTEX_POINT('',#1100);
#365=VERTEX_POINT('',#1104);
#366=VERTEX_POINT('',#1108);
#367=EDGE_CURVE('',#307,#307,#295,.T.);
#368=EDGE_CURVE('',#307,#308,#139,.T.);
#369=EDGE_CURVE('',#308,#308,#296,.T.);
#370=EDGE_CURVE('',#309,#309,#297,.T.);
#371=EDGE_CURVE('',#309,#310,#140,.T.);
#372=EDGE_CURVE('',#310,#310,#298,.T.);
#373=EDGE_CURVE('',#311,#311,#299,.T.);
#374=EDGE_CURVE('',#311,#312,#141,.T.);
#375=EDGE_CURVE('',#312,#312,#300,.T.);
#376=EDGE_CURVE('',#313,#313,#301,.T.);
#377=EDGE_CURVE('',#313,#314,#142,.T.);
#378=EDGE_CURVE('',#314,#314,#302,.T.);
#379=EDGE_CURVE('',#315,#315,#303,.T.);
#380=EDGE_CURVE('',#315,#316,#143,.T.);
#381=EDGE_CURVE('',#316,#316,#304,.T.);
#382=EDGE_CURVE('',#317,#317,#305,.T.);
#383=EDGE_CURVE('',#317,#318,#144,.T.);
#384=EDGE_CURVE('',#318,#318,#306,.T.);
#385=EDGE_CURVE('',#319,#320,#145,.T.);
#386=EDGE_CURVE('',#320,#321,#146,.T.);
#387=EDGE_CURVE('',#321,#322,#147,.T.);
#388=EDGE_CURVE('',#322,#323,#148,.T.);
#389=EDGE_CURVE('',#323,#324,#149,.T.);
#390=EDGE_CURVE('',#324,#319,#150,.T.);
#391=EDGE_CURVE('',#325,#326,#151,.T.);
#392=EDGE_CURVE('',#326,#327,#152,.T.);
#393=EDGE_CURVE('',#327,#328,#153,.T.);
#394=EDGE_CURVE('',#328,#329,#154,.T.);
#395=EDGE_CURVE('',#329,#330,#155,.T.);
#396=EDGE_CURVE('',#330,#325,#156,.T.);
#397=EDGE_CURVE('',#331,#332,#157,.T.);
#398=EDGE_CURVE('',#333,#331,#158,.T.);
#399=EDGE_CURVE('',#334,#333,#159,.T.);
#400=EDGE_CURVE('',#332,#334,#160,.T.);
#401=EDGE_CURVE('',#335,#336,#161,.T.);
#402=EDGE_CURVE('',#335,#334,#162,.T.);
#403=EDGE_CURVE('',#336,#333,#163,.T.);
#404=EDGE_CURVE('',#337,#335,#164,.T.);
#405=EDGE_CURVE('',#336,#338,#165,.T.);
#406=EDGE_CURVE('',#338,#339,#166,.T.);
#407=EDGE_CURVE('',#325,#339,#167,.T.);
#408=EDGE_CURVE('',#330,#340,#168,.T.);
#409=EDGE_CURVE('',#340,#337,#169,.T.);
#410=EDGE_CURVE('',#339,#341,#170,.T.);
#411=EDGE_CURVE('',#341,#326,#171,.T.);
#412=EDGE_CURVE('',#329,#342,#172,.T.);
#413=EDGE_CURVE('',#342,#340,#173,.T.);
#414=EDGE_CURVE('',#328,#343,#174,.T.);
#415=EDGE_CURVE('',#343,#342,#175,.T.);
#416=EDGE_CURVE('',#327,#344,#176,.T.);
#417=EDGE_CURVE('',#344,#343,#177,.T.);
#418=EDGE_CURVE('',#341,#344,#178,.T.);
#419=EDGE_CURVE('',#345,#346,#179,.T.);
#420=EDGE_CURVE('',#346,#347,#180,.T.);
#421=EDGE_CURVE('',#347,#348,#181,.T.);
#422=EDGE_CURVE('',#345,#348,#182,.T.);
#423=EDGE_CURVE('',#349,#350,#183,.T.);
#424=EDGE_CURVE('',#351,#349,#184,.T.);
#425=EDGE_CURVE('',#352,#351,#185,.T.);
#426=EDGE_CURVE('',#350,#352,#186,.T.);
#427=EDGE_CURVE('',#353,#332,#187,.T.);
#428=EDGE_CURVE('',#353,#354,#188,.T.);
#429=EDGE_CURVE('',#354,#331,#189,.T.);
#430=EDGE_CURVE('',#337,#355,#190,.T.);
#431=EDGE_CURVE('',#355,#356,#191,.T.);
#432=EDGE_CURVE('',#356,#357,#192,.T.);
#433=EDGE_CURVE('',#353,#357,#193,.T.);
#434=EDGE_CURVE('',#350,#358,#194,.T.);
#435=EDGE_CURVE('',#352,#359,#195,.T.);
#436=EDGE_CURVE('',#358,#359,#196,.T.);
#437=EDGE_CURVE('',#345,#349,#197,.T.);
#438=EDGE_CURVE('',#348,#351,#198,.T.);
#439=EDGE_CURVE('',#360,#354,#199,.T.);
#440=EDGE_CURVE('',#360,#347,#200,.T.);
#441=EDGE_CURVE('',#338,#346,#201,.T.);
#442=EDGE_CURVE('',#357,#360,#202,.T.);
#443=EDGE_CURVE('',#359,#356,#203,.T.);
#444=EDGE_CURVE('',#355,#358,#204,.T.);
#445=EDGE_CURVE('',#361,#362,#205,.T.);
#446=EDGE_CURVE('',#361,#319,#206,.T.);
#447=EDGE_CURVE('',#362,#324,#207,.T.);
#448=EDGE_CURVE('',#362,#363,#208,.T.);
#449=EDGE_CURVE('',#363,#323,#209,.T.);
#450=EDGE_CURVE('',#363,#364,#210,.T.);
#451=EDGE_CURVE('',#364,#322,#211,.T.);
#452=EDGE_CURVE('',#364,#365,#212,.T.);
#453=EDGE_CURVE('',#365,#321,#213,.T.);
#454=EDGE_CURVE('',#366,#365,#214,.T.);
#455=EDGE_CURVE('',#366,#320,#215,.T.);
#456=EDGE_CURVE('',#361,#366,#216,.T.);
#457=ORIENTED_EDGE('',*,*,#367,.F.);
#458=ORIENTED_EDGE('',*,*,#368,.T.);
#459=ORIENTED_EDGE('',*,*,#369,.T.);
#460=ORIENTED_EDGE('',*,*,#368,.F.);
#461=ORIENTED_EDGE('',*,*,#369,.F.);
#462=ORIENTED_EDGE('',*,*,#370,.F.);
#463=ORIENTED_EDGE('',*,*,#371,.T.);
#464=ORIENTED_EDGE('',*,*,#372,.T.);
#465=ORIENTED_EDGE('',*,*,#371,.F.);
#466=ORIENTED_EDGE('',*,*,#372,.F.);
#467=ORIENTED_EDGE('',*,*,#373,.F.);
#468=ORIENTED_EDGE('',*,*,#374,.T.);
#469=ORIENTED_EDGE('',*,*,#375,.T.);
#470=ORIENTED_EDGE('',*,*,#374,.F.);
#471=ORIENTED_EDGE('',*,*,#375,.F.);
#472=ORIENTED_EDGE('',*,*,#376,.F.);
#473=ORIENTED_EDGE('',*,*,#377,.T.);
#474=ORIENTED_EDGE('',*,*,#378,.T.);
#475=ORIENTED_EDGE('',*,*,#377,.F.);
#476=ORIENTED_EDGE('',*,*,#378,.F.);
#477=ORIENTED_EDGE('',*,*,#379,.F.);
#478=ORIENTED_EDGE('',*,*,#380,.T.);
#479=ORIENTED_EDGE('',*,*,#381,.T.);
#480=ORIENTED_EDGE('',*,*,#380,.F.);
#481=ORIENTED_EDGE('',*,*,#381,.F.);
#482=ORIENTED_EDGE('',*,*,#382,.F.);
#483=ORIENTED_EDGE('',*,*,#383,.T.);
#484=ORIENTED_EDGE('',*,*,#384,.T.);
#485=ORIENTED_EDGE('',*,*,#383,.F.);
#486=ORIENTED_EDGE('',*,*,#384,.F.);
#487=ORIENTED_EDGE('',*,*,#385,.T.);
#488=ORIENTED_EDGE('',*,*,#386,.T.);
#489=ORIENTED_EDGE('',*,*,#387,.T.);
#490=ORIENTED_EDGE('',*,*,#388,.T.);
#491=ORIENTED_EDGE('',*,*,#389,.T.);
#492=ORIENTED_EDGE('',*,*,#390,.T.);
#493=ORIENTED_EDGE('',*,*,#370,.T.);
#494=ORIENTED_EDGE('',*,*,#376,.T.);
#495=ORIENTED_EDGE('',*,*,#382,.T.);
#496=ORIENTED_EDGE('',*,*,#391,.T.);
#497=ORIENTED_EDGE('',*,*,#392,.T.);
#498=ORIENTED_EDGE('',*,*,#393,.T.);
#499=ORIENTED_EDGE('',*,*,#394,.T.);
#500=ORIENTED_EDGE('',*,*,#395,.T.);
#501=ORIENTED_EDGE('',*,*,#396,.T.);
#502=ORIENTED_EDGE('',*,*,#379,.T.);
#503=ORIENTED_EDGE('',*,*,#373,.T.);
#504=ORIENTED_EDGE('',*,*,#367,.T.);
#505=ORIENTED_EDGE('',*,*,#397,.F.);
#506=ORIENTED_EDGE('',*,*,#398,.F.);
#507=ORIENTED_EDGE('',*,*,#399,.F.);
#508=ORIENTED_EDGE('',*,*,#400,.F.);
#509=ORIENTED_EDGE('',*,*,#401,.F.);
#510=ORIENTED_EDGE('',*,*,#402,.T.);
#511=ORIENTED_EDGE('',*,*,#399,.T.);
#512=ORIENTED_EDGE('',*,*,#403,.F.);
#513=ORIENTED_EDGE('',*,*,#404,.T.);
#514=ORIENTED_EDGE('',*,*,#401,.T.);
#515=ORIENTED_EDGE('',*,*,#405,.T.);
#516=ORIENTED_EDGE('',*,*,#406,.T.);
#517=ORIENTED_EDGE('',*,*,#407,.F.);
#518=ORIENTED_EDGE('',*,*,#396,.F.);
#519=ORIENTED_EDGE('',*,*,#408,.T.);
#520=ORIENTED_EDGE('',*,*,#409,.T.);
#521=ORIENTED_EDGE('',*,*,#407,.T.);
#522=ORIENTED_EDGE('',*,*,#410,.T.);
#523=ORIENTED_EDGE('',*,*,#411,.T.);
#524=ORIENTED_EDGE('',*,*,#391,.F.);
#525=ORIENTED_EDGE('',*,*,#412,.T.);
#526=ORIENTED_EDGE('',*,*,#413,.T.);
#527=ORIENTED_EDGE('',*,*,#408,.F.);
#528=ORIENTED_EDGE('',*,*,#395,.F.);
#529=ORIENTED_EDGE('',*,*,#414,.T.);
#530=ORIENTED_EDGE('',*,*,#415,.T.);
#531=ORIENTED_EDGE('',*,*,#412,.F.);
#532=ORIENTED_EDGE('',*,*,#394,.F.);
#533=ORIENTED_EDGE('',*,*,#416,.T.);
#534=ORIENTED_EDGE('',*,*,#417,.T.);
#535=ORIENTED_EDGE('',*,*,#414,.F.);
#536=ORIENTED_EDGE('',*,*,#393,.F.);
#537=ORIENTED_EDGE('',*,*,#411,.F.);
#538=ORIENTED_EDGE('',*,*,#418,.T.);
#539=ORIENTED_EDGE('',*,*,#416,.F.);
#540=ORIENTED_EDGE('',*,*,#392,.F.);
#541=ORIENTED_EDGE('',*,*,#419,.T.);
#542=ORIENTED_EDGE('',*,*,#420,.T.);
#543=ORIENTED_EDGE('',*,*,#421,.T.);
#544=ORIENTED_EDGE('',*,*,#422,.F.);
#545=ORIENTED_EDGE('',*,*,#423,.F.);
#546=ORIENTED_EDGE('',*,*,#424,.F.);
#547=ORIENTED_EDGE('',*,*,#425,.F.);
#548=ORIENTED_EDGE('',*,*,#426,.F.);
#549=ORIENTED_EDGE('',*,*,#397,.T.);
#550=ORIENTED_EDGE('',*,*,#427,.F.);
#551=ORIENTED_EDGE('',*,*,#428,.T.);
#552=ORIENTED_EDGE('',*,*,#429,.T.);
#553=ORIENTED_EDGE('',*,*,#427,.T.);
#554=ORIENTED_EDGE('',*,*,#400,.T.);
#555=ORIENTED_EDGE('',*,*,#402,.F.);
#556=ORIENTED_EDGE('',*,*,#404,.F.);
#557=ORIENTED_EDGE('',*,*,#430,.T.);
#558=ORIENTED_EDGE('',*,*,#431,.T.);
#559=ORIENTED_EDGE('',*,*,#432,.T.);
#560=ORIENTED_EDGE('',*,*,#433,.F.);
#561=ORIENTED_EDGE('',*,*,#434,.F.);
#562=ORIENTED_EDGE('',*,*,#426,.T.);
#563=ORIENTED_EDGE('',*,*,#435,.T.);
#564=ORIENTED_EDGE('',*,*,#436,.F.);
#565=ORIENTED_EDGE('',*,*,#437,.F.);
#566=ORIENTED_EDGE('',*,*,#422,.T.);
#567=ORIENTED_EDGE('',*,*,#438,.T.);
#568=ORIENTED_EDGE('',*,*,#424,.T.);
#569=ORIENTED_EDGE('',*,*,#429,.F.);
#570=ORIENTED_EDGE('',*,*,#439,.F.);
#571=ORIENTED_EDGE('',*,*,#440,.T.);
#572=ORIENTED_EDGE('',*,*,#420,.F.);
#573=ORIENTED_EDGE('',*,*,#441,.F.);
#574=ORIENTED_EDGE('',*,*,#405,.F.);
#575=ORIENTED_EDGE('',*,*,#403,.T.);
#576=ORIENTED_EDGE('',*,*,#398,.T.);
#577=ORIENTED_EDGE('',*,*,#440,.F.);
#578=ORIENTED_EDGE('',*,*,#442,.F.);
#579=ORIENTED_EDGE('',*,*,#432,.F.);
#580=ORIENTED_EDGE('',*,*,#443,.F.);
#581=ORIENTED_EDGE('',*,*,#435,.F.);
#582=ORIENTED_EDGE('',*,*,#425,.T.);
#583=ORIENTED_EDGE('',*,*,#438,.F.);
#584=ORIENTED_EDGE('',*,*,#421,.F.);
#585=ORIENTED_EDGE('',*,*,#444,.F.);
#586=ORIENTED_EDGE('',*,*,#430,.F.);
#587=ORIENTED_EDGE('',*,*,#409,.F.);
#588=ORIENTED_EDGE('',*,*,#413,.F.);
#589=ORIENTED_EDGE('',*,*,#415,.F.);
#590=ORIENTED_EDGE('',*,*,#417,.F.);
#591=ORIENTED_EDGE('',*,*,#418,.F.);
#592=ORIENTED_EDGE('',*,*,#410,.F.);
#593=ORIENTED_EDGE('',*,*,#406,.F.);
#594=ORIENTED_EDGE('',*,*,#441,.T.);
#595=ORIENTED_EDGE('',*,*,#419,.F.);
#596=ORIENTED_EDGE('',*,*,#437,.T.);
#597=ORIENTED_EDGE('',*,*,#423,.T.);
#598=ORIENTED_EDGE('',*,*,#434,.T.);
#599=ORIENTED_EDGE('',*,*,#444,.T.);
#600=ORIENTED_EDGE('',*,*,#436,.T.);
#601=ORIENTED_EDGE('',*,*,#443,.T.);
#602=ORIENTED_EDGE('',*,*,#431,.F.);
#603=ORIENTED_EDGE('',*,*,#445,.F.);
#604=ORIENTED_EDGE('',*,*,#446,.T.);
#605=ORIENTED_EDGE('',*,*,#390,.F.);
#606=ORIENTED_EDGE('',*,*,#447,.F.);
#607=ORIENTED_EDGE('',*,*,#448,.F.);
#608=ORIENTED_EDGE('',*,*,#447,.T.);
#609=ORIENTED_EDGE('',*,*,#389,.F.);
#610=ORIENTED_EDGE('',*,*,#449,.F.);
#611=ORIENTED_EDGE('',*,*,#450,.F.);
#612=ORIENTED_EDGE('',*,*,#449,.T.);
#613=ORIENTED_EDGE('',*,*,#388,.F.);
#614=ORIENTED_EDGE('',*,*,#451,.F.);
#615=ORIENTED_EDGE('',*,*,#452,.F.);
#616=ORIENTED_EDGE('',*,*,#451,.T.);
#617=ORIENTED_EDGE('',*,*,#387,.F.);
#618=ORIENTED_EDGE('',*,*,#453,.F.);
#619=ORIENTED_EDGE('',*,*,#439,.T.);
#620=ORIENTED_EDGE('',*,*,#428,.F.);
#621=ORIENTED_EDGE('',*,*,#433,.T.);
#622=ORIENTED_EDGE('',*,*,#442,.T.);
#623=ORIENTED_EDGE('',*,*,#454,.T.);
#624=ORIENTED_EDGE('',*,*,#453,.T.);
#625=ORIENTED_EDGE('',*,*,#386,.F.);
#626=ORIENTED_EDGE('',*,*,#455,.F.);
#627=ORIENTED_EDGE('',*,*,#456,.T.);
#628=ORIENTED_EDGE('',*,*,#455,.T.);
#629=ORIENTED_EDGE('',*,*,#385,.F.);
#630=ORIENTED_EDGE('',*,*,#446,.F.);
#631=ORIENTED_EDGE('',*,*,#456,.F.);
#632=ORIENTED_EDGE('',*,*,#445,.T.);
#633=ORIENTED_EDGE('',*,*,#448,.T.);
#634=ORIENTED_EDGE('',*,*,#450,.T.);
#635=ORIENTED_EDGE('',*,*,#452,.T.);
#636=ORIENTED_EDGE('',*,*,#454,.F.);
#637=CYLINDRICAL_SURFACE('',#695,2.75);
#638=CYLINDRICAL_SURFACE('',#699,2.75);
#639=CYLINDRICAL_SURFACE('',#703,2.75);
#640=CYLINDRICAL_SURFACE('',#707,2.75);
#641=CYLINDRICAL_SURFACE('',#711,2.75);
#642=CYLINDRICAL_SURFACE('',#715,2.75);
#643=ADVANCED_FACE('',(#55),#637,.F.);
#644=ADVANCED_FACE('',(#56),#23,.T.);
#645=ADVANCED_FACE('',(#57),#638,.F.);
#646=ADVANCED_FACE('',(#58),#24,.T.);
#647=ADVANCED_FACE('',(#59),#639,.F.);
#648=ADVANCED_FACE('',(#60),#25,.T.);
#649=ADVANCED_FACE('',(#61),#640,.F.);
#650=ADVANCED_FACE('',(#62),#26,.T.);
#651=ADVANCED_FACE('',(#63),#641,.F.);
#652=ADVANCED_FACE('',(#64),#27,.T.);
#653=ADVANCED_FACE('',(#65),#642,.F.);
#654=ADVANCED_FACE('',(#66),#28,.T.);
#655=ADVANCED_FACE('',(#67,#15,#16,#17,#18,#19,#20,#21),#29,.T.);
#656=ADVANCED_FACE('',(#68),#30,.F.);
#657=ADVANCED_FACE('',(#69),#31,.F.);
#658=ADVANCED_FACE('',(#70),#32,.F.);
#659=ADVANCED_FACE('',(#71),#33,.F.);
#660=ADVANCED_FACE('',(#72),#34,.F.);
#661=ADVANCED_FACE('',(#73),#35,.F.);
#662=ADVANCED_FACE('',(#74),#36,.F.);
#663=ADVANCED_FACE('',(#75),#37,.F.);
#664=ADVANCED_FACE('',(#76),#38,.T.);
#665=ADVANCED_FACE('',(#77),#39,.F.);
#666=ADVANCED_FACE('',(#78),#40,.T.);
#667=ADVANCED_FACE('',(#79),#41,.F.);
#668=ADVANCED_FACE('',(#80),#42,.F.);
#669=ADVANCED_FACE('',(#81),#43,.F.);
#670=ADVANCED_FACE('',(#82),#44,.F.);
#671=ADVANCED_FACE('',(#83),#45,.F.);
#672=ADVANCED_FACE('',(#84),#46,.T.);
#673=ADVANCED_FACE('',(#85),#47,.T.);
#674=ADVANCED_FACE('',(#86),#48,.T.);
#675=ADVANCED_FACE('',(#87),#49,.T.);
#676=ADVANCED_FACE('',(#88),#50,.T.);
#677=ADVANCED_FACE('',(#89,#22),#51,.T.);
#678=ADVANCED_FACE('',(#90),#52,.T.);
#679=ADVANCED_FACE('',(#91),#53,.T.);
#680=ADVANCED_FACE('',(#92),#54,.F.);
#681=CLOSED_SHELL('',(#643,#644,#645,#646,#647,#648,#649,#650,#651,#652,
#653,#654,#655,#656,#657,#658,#659,#660,#661,#662,#663,#664,#665,#666,#667,
#668,#669,#670,#671,#672,#673,#674,#675,#676,#677,#678,#679,#680));
#682=DERIVED_UNIT_ELEMENT(#684,1.);
#683=DERIVED_UNIT_ELEMENT(#1119,-3.);
#684=(
MASS_UNIT()
NAMED_UNIT(*)
SI_UNIT(.KILO.,.GRAM.)
);
#685=DERIVED_UNIT((#682,#683));
#686=MEASURE_REPRESENTATION_ITEM('density measure',
POSITIVE_RATIO_MEASURE(7850.),#685);
#687=PROPERTY_DEFINITION_REPRESENTATION(#692,#689);
#688=PROPERTY_DEFINITION_REPRESENTATION(#693,#690);
#689=REPRESENTATION('material name',(#691),#1116);
#690=REPRESENTATION('density',(#686),#1116);
#691=DESCRIPTIVE_REPRESENTATION_ITEM('Steel','Steel');
#692=PROPERTY_DEFINITION('material property','material name',#1126);
#693=PROPERTY_DEFINITION('material property','density of part',#1126);
#694=AXIS2_PLACEMENT_3D('',#925,#745,#746);
#695=AXIS2_PLACEMENT_3D('',#926,#747,#748);
#696=AXIS2_PLACEMENT_3D('',#928,#749,#750);
#697=AXIS2_PLACEMENT_3D('',#931,#752,#753);
#698=AXIS2_PLACEMENT_3D('',#932,#754,#755);
#699=AXIS2_PLACEMENT_3D('',#933,#756,#757);
#700=AXIS2_PLACEMENT_3D('',#935,#758,#759);
#701=AXIS2_PLACEMENT_3D('',#938,#761,#762);
#702=AXIS2_PLACEMENT_3D('',#939,#763,#764);
#703=AXIS2_PLACEMENT_3D('',#940,#765,#766);
#704=AXIS2_PLACEMENT_3D('',#942,#767,#768);
#705=AXIS2_PLACEMENT_3D('',#945,#770,#771);
#706=AXIS2_PLACEMENT_3D('',#946,#772,#773);
#707=AXIS2_PLACEMENT_3D('',#947,#774,#775);
#708=AXIS2_PLACEMENT_3D('',#949,#776,#777);
#709=AXIS2_PLACEMENT_3D('',#952,#779,#780);
#710=AXIS2_PLACEMENT_3D('',#953,#781,#782);
#711=AXIS2_PLACEMENT_3D('',#954,#783,#784);
#712=AXIS2_PLACEMENT_3D('',#956,#785,#786);
#713=AXIS2_PLACEMENT_3D('',#959,#788,#789);
#714=AXIS2_PLACEMENT_3D('',#960,#790,#791);
#715=AXIS2_PLACEMENT_3D('',#961,#792,#793);
#716=AXIS2_PLACEMENT_3D('',#963,#794,#795);
#717=AXIS2_PLACEMENT_3D('',#966,#797,#798);
#718=AXIS2_PLACEMENT_3D('',#967,#799,#800);
#719=AXIS2_PLACEMENT_3D('',#968,#801,#802);
#720=AXIS2_PLACEMENT_3D('',#993,#815,#816);
#721=AXIS2_PLACEMENT_3D('',#1002,#821,#822);
#722=AXIS2_PLACEMENT_3D('',#1008,#826,#827);
#723=AXIS2_PLACEMENT_3D('',#1019,#834,#835);
#724=AXIS2_PLACEMENT_3D('',#1023,#838,#839);
#725=AXIS2_PLACEMENT_3D('',#1027,#842,#843);
#726=AXIS2_PLACEMENT_3D('',#1031,#846,#847);
#727=AXIS2_PLACEMENT_3D('',#1035,#850,#851);
#728=AXIS2_PLACEMENT_3D('',#1037,#853,#854);
#729=AXIS2_PLACEMENT_3D('',#1046,#859,#860);
#730=AXIS2_PLACEMENT_3D('',#1055,#865,#866);
#731=AXIS2_PLACEMENT_3D('',#1061,#870,#871);
#732=AXIS2_PLACEMENT_3D('',#1069,#876,#877);
#733=AXIS2_PLACEMENT_3D('',#1075,#881,#882);
#734=AXIS2_PLACEMENT_3D('',#1078,#885,#886);
#735=AXIS2_PLACEMENT_3D('',#1083,#890,#891);
#736=AXIS2_PLACEMENT_3D('',#1086,#894,#895);
#737=AXIS2_PLACEMENT_3D('',#1088,#897,#898);
#738=AXIS2_PLACEMENT_3D('',#1089,#899,#900);
#739=AXIS2_PLACEMENT_3D('',#1095,#904,#905);
#740=AXIS2_PLACEMENT_3D('',#1099,#908,#909);
#741=AXIS2_PLACEMENT_3D('',#1103,#912,#913);
#742=AXIS2_PLACEMENT_3D('',#1107,#916,#917);
#743=AXIS2_PLACEMENT_3D('',#1111,#920,#921);
#744=AXIS2_PLACEMENT_3D('',#1113,#923,#924);
#745=DIRECTION('axis',(0.,0.,1.));
#746=DIRECTION('refdir',(1.,0.,0.));
#747=DIRECTION('center_axis',(0.,0.,-1.));
#748=DIRECTION('ref_axis',(-1.,0.,0.));
#749=DIRECTION('center_axis',(0.,0.,-1.));
#750=DIRECTION('ref_axis',(-1.,0.,0.));
#751=DIRECTION('',(0.,0.,-1.));
#752=DIRECTION('center_axis',(0.,0.,-1.));
#753=DIRECTION('ref_axis',(-1.,0.,0.));
#754=DIRECTION('center_axis',(0.,0.,1.));
#755=DIRECTION('ref_axis',(-1.,0.,0.));
#756=DIRECTION('center_axis',(0.,0.,-1.));
#757=DIRECTION('ref_axis',(-1.,0.,0.));
#758=DIRECTION('center_axis',(0.,0.,-1.));
#759=DIRECTION('ref_axis',(-1.,0.,0.));
#760=DIRECTION('',(0.,0.,-1.));
#761=DIRECTION('center_axis',(0.,0.,-1.));
#762=DIRECTION('ref_axis',(-1.,0.,0.));
#763=DIRECTION('center_axis',(0.,0.,1.));
#764=DIRECTION('ref_axis',(-1.,0.,0.));
#765=DIRECTION('center_axis',(0.,0.,-1.));
#766=DIRECTION('ref_axis',(-1.,0.,0.));
#767=DIRECTION('center_axis',(0.,0.,-1.));
#768=DIRECTION('ref_axis',(-1.,0.,0.));
#769=DIRECTION('',(0.,0.,-1.));
#770=DIRECTION('center_axis',(0.,0.,-1.));
#771=DIRECTION('ref_axis',(-1.,0.,0.));
#772=DIRECTION('center_axis',(0.,0.,1.));
#773=DIRECTION('ref_axis',(-1.,0.,0.));
#774=DIRECTION('center_axis',(0.,0.,-1.));
#775=DIRECTION('ref_axis',(-1.,0.,0.));
#776=DIRECTION('center_axis',(0.,0.,-1.));
#777=DIRECTION('ref_axis',(-1.,0.,0.));
#778=DIRECTION('',(0.,0.,-1.));
#779=DIRECTION('center_axis',(0.,0.,-1.));
#780=DIRECTION('ref_axis',(-1.,0.,0.));
#781=DIRECTION('center_axis',(0.,0.,1.));
#782=DIRECTION('ref_axis',(-1.,0.,0.));
#783=DIRECTION('center_axis',(0.,0.,-1.));
#784=DIRECTION('ref_axis',(-1.,0.,0.));
#785=DIRECTION('center_axis',(0.,0.,-1.));
#786=DIRECTION('ref_axis',(-1.,0.,0.));
#787=DIRECTION('',(0.,0.,-1.));
#788=DIRECTION('center_axis',(0.,0.,-1.));
#789=DIRECTION('ref_axis',(-1.,0.,0.));
#790=DIRECTION('center_axis',(0.,0.,1.));
#791=DIRECTION('ref_axis',(-1.,0.,0.));
#792=DIRECTION('center_axis',(0.,0.,-1.));
#793=DIRECTION('ref_axis',(-1.,0.,0.));
#794=DIRECTION('center_axis',(0.,0.,-1.));
#795=DIRECTION('ref_axis',(-1.,0.,0.));
#796=DIRECTION('',(0.,0.,-1.));
#797=DIRECTION('center_axis',(0.,0.,-1.));
#798=DIRECTION('ref_axis',(-1.,0.,0.));
#799=DIRECTION('center_axis',(0.,0.,1.));
#800=DIRECTION('ref_axis',(-1.,0.,0.));
#801=DIRECTION('center_axis',(0.,0.,1.));
#802=DIRECTION('ref_axis',(1.,0.,0.));
#803=DIRECTION('',(0.841178475376554,-0.540757591313499,0.));
#804=DIRECTION('',(0.841178475376554,0.540757591313499,0.));
#805=DIRECTION('',(0.,1.,0.));
#806=DIRECTION('',(-0.841178475376554,0.540757591313499,0.));
#807=DIRECTION('',(-0.841178475376554,-0.540757591313499,0.));
#808=DIRECTION('',(0.,-1.,0.));
#809=DIRECTION('',(-0.863475863560278,-0.504390159547976,0.));
#810=DIRECTION('',(-0.863475866409495,0.504390154670342,0.));
#811=DIRECTION('',(0.,1.,0.));
#812=DIRECTION('',(0.863475866409495,0.504390154670342,0.));
#813=DIRECTION('',(0.863475863560278,-0.504390159547976,0.));
#814=DIRECTION('',(0.,-1.,0.));
#815=DIRECTION('center_axis',(1.,0.,0.));
#816=DIRECTION('ref_axis',(0.,0.,-1.));
#817=DIRECTION('',(0.,1.,0.));
#818=DIRECTION('',(0.,7.4014864631986E-16,-1.));
#819=DIRECTION('',(0.,-1.,0.));
#820=DIRECTION('',(0.,0.,1.));
#821=DIRECTION('center_axis',(0.,0.,1.));
#822=DIRECTION('ref_axis',(0.,-1.,0.));
#823=DIRECTION('',(0.,-1.,0.));
#824=DIRECTION('',(1.,0.,0.));
#825=DIRECTION('',(1.,0.,0.));
#826=DIRECTION('center_axis',(1.,0.,0.));
#827=DIRECTION('ref_axis',(0.,-1.,0.));
#828=DIRECTION('',(0.,0.,1.));
#829=DIRECTION('',(0.,7.4014864631986E-16,-1.));
#830=DIRECTION('',(0.,-1.,0.));
#831=DIRECTION('',(0.,0.,-1.));
#832=DIRECTION('',(0.,0.,-1.));
#833=DIRECTION('',(0.,-1.,0.));
#834=DIRECTION('center_axis',(0.504390159547976,-0.863475863560278,0.));
#835=DIRECTION('ref_axis',(-0.863475863560278,-0.504390159547976,0.));
#836=DIRECTION('',(-0.863475863560278,-0.504390159547976,0.));
#837=DIRECTION('',(0.,0.,1.));
#838=DIRECTION('center_axis',(0.504390159547976,0.863475863560278,0.));
#839=DIRECTION('ref_axis',(0.863475863560278,-0.504390159547976,0.));
#840=DIRECTION('',(0.,0.,-1.));
#841=DIRECTION('',(0.863475863560278,-0.504390159547976,0.));
#842=DIRECTION('center_axis',(-0.504390154670342,0.863475866409495,0.));
#843=DIRECTION('ref_axis',(0.863475866409495,0.504390154670342,0.));
#844=DIRECTION('',(0.,0.,-1.));
#845=DIRECTION('',(0.863475866409495,0.504390154670342,0.));
#846=DIRECTION('center_axis',(-1.,0.,0.));
#847=DIRECTION('ref_axis',(0.,1.,0.));
#848=DIRECTION('',(0.,0.,-1.));
#849=DIRECTION('',(0.,1.,0.));
#850=DIRECTION('center_axis',(-0.504390154670342,-0.863475866409495,0.));
#851=DIRECTION('ref_axis',(-0.863475866409495,0.504390154670342,0.));
#852=DIRECTION('',(-0.863475866409495,0.504390154670342,0.));
#853=DIRECTION('center_axis',(-1.,0.,0.));
#854=DIRECTION('ref_axis',(0.,-1.,0.));
#855=DIRECTION('',(0.,1.,0.));
#856=DIRECTION('',(0.,0.,-1.));
#857=DIRECTION('',(0.,-1.,0.));
#858=DIRECTION('',(0.,0.,-1.));
#859=DIRECTION('center_axis',(-1.,0.,0.));
#860=DIRECTION('ref_axis',(0.,0.,1.));
#861=DIRECTION('',(0.,1.,0.));
#862=DIRECTION('',(0.,0.,1.));
#863=DIRECTION('',(0.,-1.,0.));
#864=DIRECTION('',(0.,0.,-1.));
#865=DIRECTION('center_axis',(0.,0.,-1.));
#866=DIRECTION('ref_axis',(-1.,0.,0.));
#867=DIRECTION('',(-1.,0.,0.));
#868=DIRECTION('',(0.,-1.,0.));
#869=DIRECTION('',(-1.,0.,0.));
#870=DIRECTION('center_axis',(0.,1.,0.));
#871=DIRECTION('ref_axis',(1.,0.,0.));
#872=DIRECTION('',(-1.,0.,0.));
#873=DIRECTION('',(0.,0.,-1.));
#874=DIRECTION('',(1.,0.,0.));
#875=DIRECTION('',(0.,0.,-1.));
#876=DIRECTION('center_axis',(0.,1.,0.));
#877=DIRECTION('ref_axis',(1.,0.,0.));
#878=DIRECTION('',(1.,0.,0.));
#879=DIRECTION('',(1.,0.,0.));
#880=DIRECTION('',(0.,0.,-1.));
#881=DIRECTION('center_axis',(-5.16382802151236E-17,-1.,0.));
#882=DIRECTION('ref_axis',(-1.,5.16382802151236E-17,0.));
#883=DIRECTION('',(-1.,0.,0.));
#884=DIRECTION('',(-1.,0.,0.));
#885=DIRECTION('center_axis',(0.,-1.,0.));
#886=DIRECTION('ref_axis',(-1.,0.,0.));
#887=DIRECTION('',(0.,0.,1.));
#888=DIRECTION('',(-1.,0.,0.));
#889=DIRECTION('',(-1.,0.,0.));
#890=DIRECTION('center_axis',(0.,0.,-1.));
#891=DIRECTION('ref_axis',(-1.,0.,0.));
#892=DIRECTION('',(0.,-1.,0.));
#893=DIRECTION('',(0.,-1.,0.));
#894=DIRECTION('center_axis',(0.,0.,1.));
#895=DIRECTION('ref_axis',(1.,0.,0.));
#896=DIRECTION('',(0.,1.,0.));
#897=DIRECTION('center_axis',(-1.,0.,0.));
#898=DIRECTION('ref_axis',(0.,-1.,0.));
#899=DIRECTION('center_axis',(-1.,0.,0.));
#900=DIRECTION('ref_axis',(0.,-1.,0.));
#901=DIRECTION('',(0.,1.,0.));
#902=DIRECTION('',(0.,0.,1.));
#903=DIRECTION('',(0.,0.,1.));
#904=DIRECTION('center_axis',(-0.540757591313499,0.841178475376554,0.));
#905=DIRECTION('ref_axis',(-0.841178475376554,-0.540757591313499,0.));
#906=DIRECTION('',(0.841178475376554,0.540757591313499,0.));
#907=DIRECTION('',(0.,0.,1.));
#908=DIRECTION('center_axis',(0.540757591313499,0.841178475376554,0.));
#909=DIRECTION('ref_axis',(-0.841178475376554,0.540757591313499,0.));
#910=DIRECTION('',(0.841178475376554,-0.540757591313499,0.));
#911=DIRECTION('',(0.,0.,1.));
#912=DIRECTION('center_axis',(1.,0.,0.));
#913=DIRECTION('ref_axis',(0.,1.,0.));
#914=DIRECTION('',(0.,-1.,0.));
#915=DIRECTION('',(0.,0.,1.));
#916=DIRECTION('center_axis',(0.540757591313499,-0.841178475376554,0.));
#917=DIRECTION('ref_axis',(0.841178475376554,0.540757591313499,0.));
#918=DIRECTION('',(0.841178475376554,0.540757591313499,0.));
#919=DIRECTION('',(0.,0.,1.));
#920=DIRECTION('center_axis',(-0.540757591313499,-0.841178475376554,0.));
#921=DIRECTION('ref_axis',(0.841178475376554,-0.540757591313499,0.));
#922=DIRECTION('',(0.841178475376554,-0.540757591313499,0.));
#923=DIRECTION('center_axis',(0.,0.,1.));
#924=DIRECTION('ref_axis',(1.,0.,0.));
#925=CARTESIAN_POINT('',(0.,0.,0.));
#926=CARTESIAN_POINT('Origin',(-105.199997536838,41.2999989651144,15.));
#927=CARTESIAN_POINT('',(-102.449997536838,41.2999989651144,15.));
#928=CARTESIAN_POINT('Origin',(-105.199997536838,41.2999989651144,15.));
#929=CARTESIAN_POINT('',(-102.449997536838,41.2999989651144,4.));
#930=CARTESIAN_POINT('',(-102.449997536838,41.2999989651144,15.));
#931=CARTESIAN_POINT('Origin',(-105.199997536838,41.2999989651144,4.));
#932=CARTESIAN_POINT('Origin',(-105.199997536838,41.2999989651144,4.));
#933=CARTESIAN_POINT('Origin',(-105.199997536838,-4.19999979436398,15.));
#934=CARTESIAN_POINT('',(-102.449997536838,-4.19999979436397,15.));
#935=CARTESIAN_POINT('Origin',(-105.199997536838,-4.19999979436398,15.));
#936=CARTESIAN_POINT('',(-102.449997536838,-4.19999979436397,4.));
#937=CARTESIAN_POINT('',(-102.449997536838,-4.19999979436398,15.));
#938=CARTESIAN_POINT('Origin',(-105.199997536838,-4.19999979436398,4.));
#939=CARTESIAN_POINT('Origin',(-105.199997536838,-4.19999979436398,4.));
#940=CARTESIAN_POINT('Origin',(-49.9999988824129,-42.8999989293516,15.));
#941=CARTESIAN_POINT('',(-47.2499988824129,-42.8999989293516,15.));
#942=CARTESIAN_POINT('Origin',(-49.9999988824129,-42.8999989293516,15.));
#943=CARTESIAN_POINT('',(-47.2499988824129,-42.8999989293516,4.));
#944=CARTESIAN_POINT('',(-47.2499988824129,-42.8999989293516,15.));
#945=CARTESIAN_POINT('Origin',(-49.9999988824129,-42.8999989293516,4.));
#946=CARTESIAN_POINT('Origin',(-49.9999988824129,-42.8999989293516,4.));
#947=CARTESIAN_POINT('Origin',(5.19999977201223,-4.19999979436398,15.));
#948=CARTESIAN_POINT('',(7.94999977201224,-4.19999979436397,15.));
#949=CARTESIAN_POINT('Origin',(5.19999977201223,-4.19999979436398,15.));
#950=CARTESIAN_POINT('',(7.94999977201224,-4.19999979436397,4.));
#951=CARTESIAN_POINT('',(7.94999977201224,-4.19999979436398,15.));
#952=CARTESIAN_POINT('Origin',(5.19999977201223,-4.19999979436398,4.));
#953=CARTESIAN_POINT('Origin',(5.19999977201223,-4.19999979436398,4.));
#954=CARTESIAN_POINT('Origin',(5.19999977201223,41.2999989651144,15.));
#955=CARTESIAN_POINT('',(7.94999977201223,41.2999989651144,15.));
#956=CARTESIAN_POINT('Origin',(5.19999977201223,41.2999989651144,15.));
#957=CARTESIAN_POINT('',(7.94999977201223,41.2999989651144,4.));
#958=CARTESIAN_POINT('',(7.94999977201223,41.2999989651144,15.));
#959=CARTESIAN_POINT('Origin',(5.19999977201223,41.2999989651144,4.));
#960=CARTESIAN_POINT('Origin',(5.19999977201223,41.2999989651144,4.));
#961=CARTESIAN_POINT('Origin',(-49.9999988824129,79.9999981001019,15.));
#962=CARTESIAN_POINT('',(-47.2499988824129,79.9999981001019,15.));
#963=CARTESIAN_POINT('Origin',(-49.9999988824129,79.9999981001019,15.));
#964=CARTESIAN_POINT('',(-47.2499988824129,79.9999981001019,4.));
#965=CARTESIAN_POINT('',(-47.2499988824129,79.9999981001019,15.));
#966=CARTESIAN_POINT('Origin',(-49.9999988824129,79.9999981001019,4.));
#967=CARTESIAN_POINT('Origin',(-49.9999988824129,79.9999981001019,4.));
#968=CARTESIAN_POINT('Origin',(-50.,18.55,15.));
#969=CARTESIAN_POINT('',(-110.2,-9.20000000000002,15.));
#970=CARTESIAN_POINT('',(-50.,-47.9,15.));
#971=CARTESIAN_POINT('',(-110.2,-9.20000000000001,15.));
#972=CARTESIAN_POINT('',(10.2,-9.20000000000002,15.));
#973=CARTESIAN_POINT('',(-50.,-47.9,15.));
#974=CARTESIAN_POINT('',(10.2,46.3,15.));
#975=CARTESIAN_POINT('',(10.2,46.3,15.));
#976=CARTESIAN_POINT('',(-50.,85.,15.));
#977=CARTESIAN_POINT('',(-50.,85.,15.));
#978=CARTESIAN_POINT('',(-110.2,46.3,15.));
#979=CARTESIAN_POINT('',(-110.2,46.3,15.));
#980=CARTESIAN_POINT('',(-110.2,-9.20000000000001,15.));
#981=CARTESIAN_POINT('',(1.7,-9.20000000000002,15.));
#982=CARTESIAN_POINT('',(-49.9999996647238,-39.4,15.));
#983=CARTESIAN_POINT('',(-11.5305550465431,-16.9284867504213,15.));
#984=CARTESIAN_POINT('',(-101.7,-9.20000000000002,15.));
#985=CARTESIAN_POINT('',(-62.6194446201273,-32.0284867469692,15.));
#986=CARTESIAN_POINT('',(-101.7,46.3,15.));
#987=CARTESIAN_POINT('',(-101.7,4.67499999999999,15.));
#988=CARTESIAN_POINT('',(-49.9999996647237,76.4999999999999,15.));
#989=CARTESIAN_POINT('',(-88.4694447877654,54.0284867469692,15.));
#990=CARTESIAN_POINT('',(1.7,46.3,15.));
#991=CARTESIAN_POINT('',(-37.380554878905,69.1284867504212,15.));
#992=CARTESIAN_POINT('',(1.70000000000001,32.425,15.));
#993=CARTESIAN_POINT('Origin',(4.70000000000001,18.55,8.50000007450581));
#994=CARTESIAN_POINT('',(4.70000000000001,11.8,7.00000000000001));
#995=CARTESIAN_POINT('',(4.70000000000001,25.3,7.));
#996=CARTESIAN_POINT('',(4.70000000000001,15.1749998681247,6.99999968707561));
#997=CARTESIAN_POINT('',(4.70000000000001,11.8,10.0000001490116));
#998=CARTESIAN_POINT('',(4.70000000000001,11.8,7.00000000000001));
#999=CARTESIAN_POINT('',(4.70000000000001,25.3,10.0000001490116));
#1000=CARTESIAN_POINT('',(4.70000000000001,11.8,10.0000001490116));
#1001=CARTESIAN_POINT('',(4.70000000000001,25.3,7.));
#1002=CARTESIAN_POINT('Origin',(1.7,25.3,10.0000001490116));
#1003=CARTESIAN_POINT('',(1.7,25.3,10.0000001490116));
#1004=CARTESIAN_POINT('',(1.7,11.8,10.0000001490116));
#1005=CARTESIAN_POINT('',(1.7,35.8,10.0000001490116));
#1006=CARTESIAN_POINT('',(1.7,25.3,10.0000001490116));
#1007=CARTESIAN_POINT('',(1.7,11.8,10.0000001490116));
#1008=CARTESIAN_POINT('Origin',(1.7,46.3,14.));
#1009=CARTESIAN_POINT('',(1.7,25.3,7.));
#1010=CARTESIAN_POINT('',(1.7,25.3,10.5));
#1011=CARTESIAN_POINT('',(1.7,11.8,7.00000000000001));
#1012=CARTESIAN_POINT('',(1.7,11.8,12.0000000745058));
#1013=CARTESIAN_POINT('',(1.7,-9.20000000000002,7.));
#1014=CARTESIAN_POINT('',(1.7,46.3,7.));
#1015=CARTESIAN_POINT('',(1.7,-9.20000000000002,14.));
#1016=CARTESIAN_POINT('',(1.7,46.3,7.));
#1017=CARTESIAN_POINT('',(1.7,46.3,14.));
#1018=CARTESIAN_POINT('',(1.7,46.3,7.));
#1019=CARTESIAN_POINT('Origin',(1.70000000000001,-9.20000000000001,14.));
#1020=CARTESIAN_POINT('',(-49.9999996647238,-39.4,7.));
#1021=CARTESIAN_POINT('',(-49.9999996647238,-39.4,7.));
#1022=CARTESIAN_POINT('',(-49.9999996647238,-39.4,14.));
#1023=CARTESIAN_POINT('Origin',(-49.9999996647237,76.5,14.));
#1024=CARTESIAN_POINT('',(-49.9999996647237,76.5,7.));
#1025=CARTESIAN_POINT('',(-49.9999996647237,76.5,14.));
#1026=CARTESIAN_POINT('',(-49.9999996647237,76.5,7.));
#1027=CARTESIAN_POINT('Origin',(-101.7,46.3,14.));
#1028=CARTESIAN_POINT('',(-101.7,46.3,7.));
#1029=CARTESIAN_POINT('',(-101.7,46.3,14.));
#1030=CARTESIAN_POINT('',(-101.7,46.3,7.));
#1031=CARTESIAN_POINT('Origin',(-101.7,-9.20000000000002,14.));
#1032=CARTESIAN_POINT('',(-101.7,-9.20000000000002,7.));
#1033=CARTESIAN_POINT('',(-101.7,-9.20000000000002,14.));
#1034=CARTESIAN_POINT('',(-101.7,-9.20000000000002,7.));
#1035=CARTESIAN_POINT('Origin',(-49.9999996647238,-39.4,14.));
#1036=CARTESIAN_POINT('',(-101.7,-9.20000000000002,7.));
#1037=CARTESIAN_POINT('Origin',(0.200000000000004,46.3,0.));
#1038=CARTESIAN_POINT('',(0.200000000000005,8.79999999999999,7.));
#1039=CARTESIAN_POINT('',(0.200000000000005,11.8,7.));
#1040=CARTESIAN_POINT('',(0.200000000000005,32.425,7.));
#1041=CARTESIAN_POINT('',(0.200000000000005,11.8,2.));
#1042=CARTESIAN_POINT('',(0.200000000000005,11.8,7.));
#1043=CARTESIAN_POINT('',(0.200000000000005,8.79999999999999,2.));
#1044=CARTESIAN_POINT('',(0.200000000000005,11.8,2.));
#1045=CARTESIAN_POINT('',(0.200000000000005,8.79999999999999,7.));
#1046=CARTESIAN_POINT('Origin',(-26.3,8.79999999999999,7.));
#1047=CARTESIAN_POINT('',(-26.3,8.79999999999999,7.));
#1048=CARTESIAN_POINT('',(-26.3,28.3,7.));
#1049=CARTESIAN_POINT('',(-26.3,13.675,7.));
#1050=CARTESIAN_POINT('',(-26.3,8.79999999999999,2.));
#1051=CARTESIAN_POINT('',(-26.3,8.79999999999999,7.));
#1052=CARTESIAN_POINT('',(-26.3,28.3,2.));
#1053=CARTESIAN_POINT('',(-26.3,28.3,2.));
#1054=CARTESIAN_POINT('',(-26.3,28.3,7.));
#1055=CARTESIAN_POINT('Origin',(10.2,11.7999997362494,6.99999968707561));
#1056=CARTESIAN_POINT('',(10.2,25.3,7.));
#1057=CARTESIAN_POINT('',(10.2,25.3,7.));
#1058=CARTESIAN_POINT('',(10.2,11.8,7.00000000000001));
#1059=CARTESIAN_POINT('',(10.2,1.29999986812472,6.99999968707561));
#1060=CARTESIAN_POINT('',(10.2,11.8,7.00000000000001));
#1061=CARTESIAN_POINT('Origin',(0.200000000000005,25.3,7.));
#1062=CARTESIAN_POINT('',(0.200000000000005,25.3,7.));
#1063=CARTESIAN_POINT('',(10.2,25.3,7.));
#1064=CARTESIAN_POINT('',(0.200000000000005,25.3,2.));
#1065=CARTESIAN_POINT('',(0.200000000000005,25.3,7.));
#1066=CARTESIAN_POINT('',(10.2,25.3,2.));
#1067=CARTESIAN_POINT('',(10.2,25.3,2.));
#1068=CARTESIAN_POINT('',(10.2,25.3,3.5));
#1069=CARTESIAN_POINT('Origin',(-21.3,28.3,7.));
#1070=CARTESIAN_POINT('',(0.200000000000005,28.3,7.));
#1071=CARTESIAN_POINT('',(-35.65,28.3,7.));
#1072=CARTESIAN_POINT('',(0.200000000000005,28.3,2.));
#1073=CARTESIAN_POINT('',(0.200000000000005,28.3,2.));
#1074=CARTESIAN_POINT('',(0.200000000000005,28.3,7.));
#1075=CARTESIAN_POINT('Origin',(0.200000000000005,8.79999999999999,7.));
#1076=CARTESIAN_POINT('',(-35.65,8.79999999999999,7.));
#1077=CARTESIAN_POINT('',(-21.3,8.79999999999999,2.));
#1078=CARTESIAN_POINT('Origin',(10.2,11.8,7.));
#1079=CARTESIAN_POINT('',(10.2,11.8,2.));
#1080=CARTESIAN_POINT('',(10.2,11.8,3.5));
#1081=CARTESIAN_POINT('',(0.200000000000005,11.8,2.));
#1082=CARTESIAN_POINT('',(10.2,11.8,7.00000000000001));
#1083=CARTESIAN_POINT('Origin',(-5.55,18.55,2.));
#1084=CARTESIAN_POINT('',(10.2,4.67499999999999,2.));
#1085=CARTESIAN_POINT('',(0.200000000000005,25.3,2.));
#1086=CARTESIAN_POINT('Origin',(-50.,18.55,7.));
#1087=CARTESIAN_POINT('',(0.200000000000005,32.425,7.));
#1088=CARTESIAN_POINT('Origin',(0.200000000000004,46.3,0.));
#1089=CARTESIAN_POINT('Origin',(-110.2,46.3,0.));
#1090=CARTESIAN_POINT('',(-110.2,-9.20000000000001,0.));
#1091=CARTESIAN_POINT('',(-110.2,46.3,0.));
#1092=CARTESIAN_POINT('',(-110.2,-9.20000000000001,0.));
#1093=CARTESIAN_POINT('',(-110.2,-9.20000000000001,0.));
#1094=CARTESIAN_POINT('',(-110.2,46.3,0.));
#1095=CARTESIAN_POINT('Origin',(-50.,85.,0.));
#1096=CARTESIAN_POINT('',(-50.,85.,0.));
#1097=CARTESIAN_POINT('',(-110.2,46.3,0.));
#1098=CARTESIAN_POINT('',(-50.,85.,0.));
#1099=CARTESIAN_POINT('Origin',(10.2,46.3,0.));
#1100=CARTESIAN_POINT('',(10.2,46.3,0.));
#1101=CARTESIAN_POINT('',(-50.,85.,0.));
#1102=CARTESIAN_POINT('',(10.2,46.3,0.));
#1103=CARTESIAN_POINT('Origin',(10.2,-9.20000000000001,0.));
#1104=CARTESIAN_POINT('',(10.2,-9.20000000000001,0.));
#1105=CARTESIAN_POINT('',(10.2,46.3,0.));
#1106=CARTESIAN_POINT('',(10.2,-9.20000000000001,0.));
#1107=CARTESIAN_POINT('Origin',(-50.,-47.9,0.));
#1108=CARTESIAN_POINT('',(-50.,-47.9,0.));
#1109=CARTESIAN_POINT('',(-50.,-47.9,0.));
#1110=CARTESIAN_POINT('',(-50.,-47.9,0.));
#1111=CARTESIAN_POINT('Origin',(-110.2,-9.20000000000001,0.));
#1112=CARTESIAN_POINT('',(-110.2,-9.20000000000001,0.));
#1113=CARTESIAN_POINT('Origin',(-50.,18.55,0.));
#1114=UNCERTAINTY_MEASURE_WITH_UNIT(LENGTH_MEASURE(0.01),#1118,
'DISTANCE_ACCURACY_VALUE',
'Maximum model space distance between geometric entities at asserted c
onnectivities');
#1115=UNCERTAINTY_MEASURE_WITH_UNIT(LENGTH_MEASURE(0.01),#1118,
'DISTANCE_ACCURACY_VALUE',
'Maximum model space distance between geometric entities at asserted c
onnectivities');
#1116=(
GEOMETRIC_REPRESENTATION_CONTEXT(3)
GLOBAL_UNCERTAINTY_ASSIGNED_CONTEXT((#1114))
GLOBAL_UNIT_ASSIGNED_CONTEXT((#1118,#1120,#1121))
REPRESENTATION_CONTEXT('','3D')
);
#1117=(
GEOMETRIC_REPRESENTATION_CONTEXT(3)
GLOBAL_UNCERTAINTY_ASSIGNED_CONTEXT((#1115))
GLOBAL_UNIT_ASSIGNED_CONTEXT((#1118,#1120,#1121))
REPRESENTATION_CONTEXT('','3D')
);
#1118=(
LENGTH_UNIT()
NAMED_UNIT(*)
SI_UNIT(.MILLI.,.METRE.)
);
#1119=(
LENGTH_UNIT()
NAMED_UNIT(*)
SI_UNIT($,.METRE.)
);
#1120=(
NAMED_UNIT(*)
PLANE_ANGLE_UNIT()
SI_UNIT($,.RADIAN.)
);
#1121=(
NAMED_UNIT(*)
SI_UNIT($,.STERADIAN.)
SOLID_ANGLE_UNIT()
);
#1122=SHAPE_DEFINITION_REPRESENTATION(#1123,#1124);
#1123=PRODUCT_DEFINITION_SHAPE('',$,#1126);
#1124=SHAPE_REPRESENTATION('',(#694),#1116);
#1125=PRODUCT_DEFINITION_CONTEXT('part definition',#1130,'design');
#1126=PRODUCT_DEFINITION('2026-07-06-01-26-08-540','BeePad2',#1127,#1125);
#1127=PRODUCT_DEFINITION_FORMATION('',$,#1132);
#1128=PRODUCT_RELATED_PRODUCT_CATEGORY('BeePad2','BeePad2',(#1132));
#1129=APPLICATION_PROTOCOL_DEFINITION('international standard',
'automotive_design',2009,#1130);
#1130=APPLICATION_CONTEXT(
'Core Data for Automotive Mechanical Design Process');
#1131=PRODUCT_CONTEXT('part definition',#1130,'mechanical');
#1132=PRODUCT('2026-07-06-01-26-08-540','BeePad2',$,(#1131));
#1133=PRESENTATION_STYLE_ASSIGNMENT((#1136));
#1134=PRESENTATION_STYLE_ASSIGNMENT((#1137));
#1135=PRESENTATION_STYLE_ASSIGNMENT((#1138));
#1136=SURFACE_STYLE_USAGE(.BOTH.,#1139);
#1137=SURFACE_STYLE_USAGE(.BOTH.,#1140);
#1138=SURFACE_STYLE_USAGE(.BOTH.,#1141);
#1139=SURFACE_SIDE_STYLE('',(#1142));
#1140=SURFACE_SIDE_STYLE('',(#1143));
#1141=SURFACE_SIDE_STYLE('',(#1144));
#1142=SURFACE_STYLE_FILL_AREA(#1145);
#1143=SURFACE_STYLE_FILL_AREA(#1146);
#1144=SURFACE_STYLE_FILL_AREA(#1147);
#1145=FILL_AREA_STYLE('Steel - Satin',(#1148));
#1146=FILL_AREA_STYLE('Powder Coat (Yellow)',(#1149));
#1147=FILL_AREA_STYLE('Powder Coat (Black)',(#1150));
#1148=FILL_AREA_STYLE_COLOUR('Steel - Satin',#1151);
#1149=FILL_AREA_STYLE_COLOUR('Powder Coat (Yellow)',#1152);
#1150=FILL_AREA_STYLE_COLOUR('Powder Coat (Black)',#1153);
#1151=COLOUR_RGB('Steel - Satin',0.627450980392157,0.627450980392157,0.627450980392157);
#1152=COLOUR_RGB('Powder Coat (Yellow)',0.909803921568627,0.67843137254902,
0.137254901960784);
#1153=COLOUR_RGB('Powder Coat (Black)',0.0980392156862745,0.0980392156862745,
0.0980392156862745);
ENDSEC;
END-ISO-10303-21;
