ISO-10303-21;
HEADER;
/* Generated by software containing ST-Developer
 * from STEP Tools, Inc. (www.steptools.com) 
 */

FILE_DESCRIPTION(
/* description */ (''),
/* implementation_level */ '2;1');

FILE_NAME(
/* name */ 'BeePadBottom.step',
/* time_stamp */ '2026-07-12T23:58:29+02:00',
/* author */ (''),
/* organization */ (''),
/* preprocessor_version */ 'ST-DEVELOPER v20.1',
/* originating_system */ 'Autodesk Translation Framework v15.8.0.0',
/* authorisation */ '');

FILE_SCHEMA (('AUTOMOTIVE_DESIGN { 1 0 10303 214 3 1 1 }'));
ENDSEC;

DATA;
#10=MECHANICAL_DESIGN_GEOMETRIC_PRESENTATION_REPRESENTATION('',(#13),#985);
#11=SHAPE_REPRESENTATION_RELATIONSHIP('SRR','None',#992,#12);
#12=ADVANCED_BREP_SHAPE_REPRESENTATION('',(#14),#984);
#13=STYLED_ITEM('',(#1002),#14);
#14=MANIFOLD_SOLID_BREP('Body1',#597);
#15=CYLINDRICAL_SURFACE('',#629,2.35);
#16=CYLINDRICAL_SURFACE('',#632,2.35000000000001);
#17=CYLINDRICAL_SURFACE('',#635,2.34999999999999);
#18=CYLINDRICAL_SURFACE('',#638,2.35);
#19=CYLINDRICAL_SURFACE('',#641,2.35);
#20=CYLINDRICAL_SURFACE('',#644,2.35);
#21=FACE_BOUND('',#87,.T.);
#22=FACE_BOUND('',#88,.T.);
#23=FACE_BOUND('',#89,.T.);
#24=FACE_BOUND('',#90,.T.);
#25=FACE_BOUND('',#91,.T.);
#26=FACE_BOUND('',#92,.T.);
#27=FACE_BOUND('',#93,.T.);
#28=FACE_BOUND('',#113,.T.);
#29=CIRCLE('',#623,2.35);
#30=CIRCLE('',#624,2.35000000000001);
#31=CIRCLE('',#625,2.34999999999999);
#32=CIRCLE('',#626,2.35);
#33=CIRCLE('',#627,2.35);
#34=CIRCLE('',#628,2.35);
#35=CIRCLE('',#630,2.35);
#36=CIRCLE('',#633,2.35000000000001);
#37=CIRCLE('',#636,2.34999999999999);
#38=CIRCLE('',#639,2.35);
#39=CIRCLE('',#642,2.35);
#40=CIRCLE('',#645,2.35);
#41=FACE_OUTER_BOUND('',#75,.T.);
#42=FACE_OUTER_BOUND('',#76,.T.);
#43=FACE_OUTER_BOUND('',#77,.T.);
#44=FACE_OUTER_BOUND('',#78,.T.);
#45=FACE_OUTER_BOUND('',#79,.T.);
#46=FACE_OUTER_BOUND('',#80,.T.);
#47=FACE_OUTER_BOUND('',#81,.T.);
#48=FACE_OUTER_BOUND('',#82,.T.);
#49=FACE_OUTER_BOUND('',#83,.T.);
#50=FACE_OUTER_BOUND('',#84,.T.);
#51=FACE_OUTER_BOUND('',#85,.T.);
#52=FACE_OUTER_BOUND('',#86,.T.);
#53=FACE_OUTER_BOUND('',#94,.T.);
#54=FACE_OUTER_BOUND('',#95,.T.);
#55=FACE_OUTER_BOUND('',#96,.T.);
#56=FACE_OUTER_BOUND('',#97,.T.);
#57=FACE_OUTER_BOUND('',#98,.T.);
#58=FACE_OUTER_BOUND('',#99,.T.);
#59=FACE_OUTER_BOUND('',#100,.T.);
#60=FACE_OUTER_BOUND('',#101,.T.);
#61=FACE_OUTER_BOUND('',#102,.T.);
#62=FACE_OUTER_BOUND('',#103,.T.);
#63=FACE_OUTER_BOUND('',#104,.T.);
#64=FACE_OUTER_BOUND('',#105,.T.);
#65=FACE_OUTER_BOUND('',#106,.T.);
#66=FACE_OUTER_BOUND('',#107,.T.);
#67=FACE_OUTER_BOUND('',#108,.T.);
#68=FACE_OUTER_BOUND('',#109,.T.);
#69=FACE_OUTER_BOUND('',#110,.T.);
#70=FACE_OUTER_BOUND('',#111,.T.);
#71=FACE_OUTER_BOUND('',#112,.T.);
#72=FACE_OUTER_BOUND('',#114,.T.);
#73=FACE_OUTER_BOUND('',#115,.T.);
#74=FACE_OUTER_BOUND('',#116,.T.);
#75=EDGE_LOOP('',(#379,#380,#381,#382));
#76=EDGE_LOOP('',(#383,#384,#385,#386));
#77=EDGE_LOOP('',(#387,#388,#389,#390));
#78=EDGE_LOOP('',(#391,#392,#393,#394));
#79=EDGE_LOOP('',(#395,#396,#397,#398));
#80=EDGE_LOOP('',(#399,#400,#401,#402));
#81=EDGE_LOOP('',(#403,#404,#405,#406,#407,#408,#409,#410));
#82=EDGE_LOOP('',(#411,#412,#413,#414,#415,#416,#417,#418,#419,#420));
#83=EDGE_LOOP('',(#421,#422,#423,#424,#425,#426,#427,#428,#429,#430,#431,
#432));
#84=EDGE_LOOP('',(#433,#434,#435,#436));
#85=EDGE_LOOP('',(#437,#438,#439,#440));
#86=EDGE_LOOP('',(#441,#442,#443,#444,#445,#446));
#87=EDGE_LOOP('',(#447));
#88=EDGE_LOOP('',(#448));
#89=EDGE_LOOP('',(#449));
#90=EDGE_LOOP('',(#450));
#91=EDGE_LOOP('',(#451));
#92=EDGE_LOOP('',(#452));
#93=EDGE_LOOP('',(#453,#454,#455,#456,#457,#458));
#94=EDGE_LOOP('',(#459,#460,#461,#462));
#95=EDGE_LOOP('',(#463));
#96=EDGE_LOOP('',(#464,#465,#466,#467));
#97=EDGE_LOOP('',(#468));
#98=EDGE_LOOP('',(#469,#470,#471,#472));
#99=EDGE_LOOP('',(#473));
#100=EDGE_LOOP('',(#474,#475,#476,#477));
#101=EDGE_LOOP('',(#478));
#102=EDGE_LOOP('',(#479,#480,#481,#482));
#103=EDGE_LOOP('',(#483));
#104=EDGE_LOOP('',(#484,#485,#486,#487));
#105=EDGE_LOOP('',(#488));
#106=EDGE_LOOP('',(#489,#490,#491,#492));
#107=EDGE_LOOP('',(#493,#494,#495,#496));
#108=EDGE_LOOP('',(#497,#498,#499,#500));
#109=EDGE_LOOP('',(#501,#502,#503,#504));
#110=EDGE_LOOP('',(#505,#506,#507,#508));
#111=EDGE_LOOP('',(#509,#510,#511,#512));
#112=EDGE_LOOP('',(#513,#514,#515,#516));
#113=EDGE_LOOP('',(#517,#518,#519,#520));
#114=EDGE_LOOP('',(#521,#522,#523,#524));
#115=EDGE_LOOP('',(#525,#526,#527,#528));
#116=EDGE_LOOP('',(#529,#530,#531,#532,#533,#534));
#117=LINE('',#821,#183);
#118=LINE('',#823,#184);
#119=LINE('',#825,#185);
#120=LINE('',#826,#186);
#121=LINE('',#829,#187);
#122=LINE('',#831,#188);
#123=LINE('',#832,#189);
#124=LINE('',#836,#190);
#125=LINE('',#838,#191);
#126=LINE('',#840,#192);
#127=LINE('',#841,#193);
#128=LINE('',#844,#194);
#129=LINE('',#846,#195);
#130=LINE('',#847,#196);
#131=LINE('',#850,#197);
#132=LINE('',#852,#198);
#133=LINE('',#853,#199);
#134=LINE('',#856,#200);
#135=LINE('',#858,#201);
#136=LINE('',#859,#202);
#137=LINE('',#861,#203);
#138=LINE('',#862,#204);
#139=LINE('',#863,#205);
#140=LINE('',#866,#206);
#141=LINE('',#868,#207);
#142=LINE('',#870,#208);
#143=LINE('',#872,#209);
#144=LINE('',#874,#210);
#145=LINE('',#876,#211);
#146=LINE('',#877,#212);
#147=LINE('',#880,#213);
#148=LINE('',#882,#214);
#149=LINE('',#883,#215);
#150=LINE('',#886,#216);
#151=LINE('',#888,#217);
#152=LINE('',#889,#218);
#153=LINE('',#891,#219);
#154=LINE('',#895,#220);
#155=LINE('',#897,#221);
#156=LINE('',#899,#222);
#157=LINE('',#901,#223);
#158=LINE('',#903,#224);
#159=LINE('',#904,#225);
#160=LINE('',#919,#226);
#161=LINE('',#920,#227);
#162=LINE('',#921,#228);
#163=LINE('',#924,#229);
#164=LINE('',#929,#230);
#165=LINE('',#934,#231);
#166=LINE('',#939,#232);
#167=LINE('',#944,#233);
#168=LINE('',#949,#234);
#169=LINE('',#953,#235);
#170=LINE('',#955,#236);
#171=LINE('',#960,#237);
#172=LINE('',#961,#238);
#173=LINE('',#962,#239);
#174=LINE('',#965,#240);
#175=LINE('',#966,#241);
#176=LINE('',#969,#242);
#177=LINE('',#970,#243);
#178=LINE('',#973,#244);
#179=LINE('',#974,#245);
#180=LINE('',#977,#246);
#181=LINE('',#978,#247);
#182=LINE('',#980,#248);
#183=VECTOR('',#661,10.);
#184=VECTOR('',#662,10.);
#185=VECTOR('',#663,10.);
#186=VECTOR('',#664,10.);
#187=VECTOR('',#667,10.);
#188=VECTOR('',#668,10.);
#189=VECTOR('',#669,10.);
#190=VECTOR('',#672,10.);
#191=VECTOR('',#673,10.);
#192=VECTOR('',#674,10.);
#193=VECTOR('',#675,10.);
#194=VECTOR('',#678,10.);
#195=VECTOR('',#679,10.);
#196=VECTOR('',#680,10.);
#197=VECTOR('',#683,10.);
#198=VECTOR('',#684,10.);
#199=VECTOR('',#685,10.);
#200=VECTOR('',#688,10.);
#201=VECTOR('',#689,10.);
#202=VECTOR('',#690,10.);
#203=VECTOR('',#693,10.);
#204=VECTOR('',#694,10.);
#205=VECTOR('',#695,10.);
#206=VECTOR('',#698,10.);
#207=VECTOR('',#699,10.);
#208=VECTOR('',#700,10.);
#209=VECTOR('',#701,10.);
#210=VECTOR('',#702,10.);
#211=VECTOR('',#703,10.);
#212=VECTOR('',#704,10.);
#213=VECTOR('',#707,10.);
#214=VECTOR('',#708,10.);
#215=VECTOR('',#709,10.);
#216=VECTOR('',#712,10.);
#217=VECTOR('',#713,10.);
#218=VECTOR('',#714,10.);
#219=VECTOR('',#717,10.);
#220=VECTOR('',#720,10.);
#221=VECTOR('',#721,10.);
#222=VECTOR('',#722,10.);
#223=VECTOR('',#723,10.);
#224=VECTOR('',#724,10.);
#225=VECTOR('',#725,10.);
#226=VECTOR('',#738,10.);
#227=VECTOR('',#739,10.);
#228=VECTOR('',#740,10.);
#229=VECTOR('',#743,2.35);
#230=VECTOR('',#750,2.35000000000001);
#231=VECTOR('',#757,2.34999999999999);
#232=VECTOR('',#764,2.35);
#233=VECTOR('',#771,2.35);
#234=VECTOR('',#778,2.35);
#235=VECTOR('',#785,10.);
#236=VECTOR('',#788,10.);
#237=VECTOR('',#793,10.);
#238=VECTOR('',#794,10.);
#239=VECTOR('',#795,10.);
#240=VECTOR('',#798,10.);
#241=VECTOR('',#799,10.);
#242=VECTOR('',#802,10.);
#243=VECTOR('',#803,10.);
#244=VECTOR('',#806,10.);
#245=VECTOR('',#807,10.);
#246=VECTOR('',#810,10.);
#247=VECTOR('',#811,10.);
#248=VECTOR('',#814,10.);
#249=VERTEX_POINT('',#819);
#250=VERTEX_POINT('',#820);
#251=VERTEX_POINT('',#822);
#252=VERTEX_POINT('',#824);
#253=VERTEX_POINT('',#828);
#254=VERTEX_POINT('',#830);
#255=VERTEX_POINT('',#834);
#256=VERTEX_POINT('',#835);
#257=VERTEX_POINT('',#837);
#258=VERTEX_POINT('',#839);
#259=VERTEX_POINT('',#843);
#260=VERTEX_POINT('',#845);
#261=VERTEX_POINT('',#849);
#262=VERTEX_POINT('',#851);
#263=VERTEX_POINT('',#855);
#264=VERTEX_POINT('',#857);
#265=VERTEX_POINT('',#865);
#266=VERTEX_POINT('',#867);
#267=VERTEX_POINT('',#869);
#268=VERTEX_POINT('',#871);
#269=VERTEX_POINT('',#873);
#270=VERTEX_POINT('',#875);
#271=VERTEX_POINT('',#879);
#272=VERTEX_POINT('',#881);
#273=VERTEX_POINT('',#885);
#274=VERTEX_POINT('',#887);
#275=VERTEX_POINT('',#893);
#276=VERTEX_POINT('',#894);
#277=VERTEX_POINT('',#896);
#278=VERTEX_POINT('',#898);
#279=VERTEX_POINT('',#900);
#280=VERTEX_POINT('',#902);
#281=VERTEX_POINT('',#905);
#282=VERTEX_POINT('',#907);
#283=VERTEX_POINT('',#909);
#284=VERTEX_POINT('',#911);
#285=VERTEX_POINT('',#913);
#286=VERTEX_POINT('',#915);
#287=VERTEX_POINT('',#917);
#288=VERTEX_POINT('',#918);
#289=VERTEX_POINT('',#923);
#290=VERTEX_POINT('',#928);
#291=VERTEX_POINT('',#933);
#292=VERTEX_POINT('',#938);
#293=VERTEX_POINT('',#943);
#294=VERTEX_POINT('',#948);
#295=VERTEX_POINT('',#958);
#296=VERTEX_POINT('',#959);
#297=VERTEX_POINT('',#964);
#298=VERTEX_POINT('',#968);
#299=VERTEX_POINT('',#972);
#300=VERTEX_POINT('',#976);
#301=EDGE_CURVE('',#249,#250,#117,.T.);
#302=EDGE_CURVE('',#251,#250,#118,.T.);
#303=EDGE_CURVE('',#251,#252,#119,.T.);
#304=EDGE_CURVE('',#252,#249,#120,.T.);
#305=EDGE_CURVE('',#250,#253,#121,.T.);
#306=EDGE_CURVE('',#253,#254,#122,.T.);
#307=EDGE_CURVE('',#251,#254,#123,.T.);
#308=EDGE_CURVE('',#255,#256,#124,.T.);
#309=EDGE_CURVE('',#255,#257,#125,.T.);
#310=EDGE_CURVE('',#257,#258,#126,.T.);
#311=EDGE_CURVE('',#256,#258,#127,.T.);
#312=EDGE_CURVE('',#259,#255,#128,.T.);
#313=EDGE_CURVE('',#259,#260,#129,.T.);
#314=EDGE_CURVE('',#260,#257,#130,.T.);
#315=EDGE_CURVE('',#261,#259,#131,.T.);
#316=EDGE_CURVE('',#261,#262,#132,.T.);
#317=EDGE_CURVE('',#262,#260,#133,.T.);
#318=EDGE_CURVE('',#263,#252,#134,.T.);
#319=EDGE_CURVE('',#263,#264,#135,.T.);
#320=EDGE_CURVE('',#249,#264,#136,.T.);
#321=EDGE_CURVE('',#254,#263,#137,.T.);
#322=EDGE_CURVE('',#258,#253,#138,.T.);
#323=EDGE_CURVE('',#264,#262,#139,.T.);
#324=EDGE_CURVE('',#265,#256,#140,.T.);
#325=EDGE_CURVE('',#266,#265,#141,.T.);
#326=EDGE_CURVE('',#267,#266,#142,.T.);
#327=EDGE_CURVE('',#268,#267,#143,.T.);
#328=EDGE_CURVE('',#269,#268,#144,.T.);
#329=EDGE_CURVE('',#270,#269,#145,.T.);
#330=EDGE_CURVE('',#261,#270,#146,.T.);
#331=EDGE_CURVE('',#270,#271,#147,.T.);
#332=EDGE_CURVE('',#272,#271,#148,.T.);
#333=EDGE_CURVE('',#265,#272,#149,.T.);
#334=EDGE_CURVE('',#266,#273,#150,.T.);
#335=EDGE_CURVE('',#274,#273,#151,.T.);
#336=EDGE_CURVE('',#267,#274,#152,.T.);
#337=EDGE_CURVE('',#273,#272,#153,.T.);
#338=EDGE_CURVE('',#275,#276,#154,.T.);
#339=EDGE_CURVE('',#276,#277,#155,.T.);
#340=EDGE_CURVE('',#277,#278,#156,.T.);
#341=EDGE_CURVE('',#278,#279,#157,.T.);
#342=EDGE_CURVE('',#279,#280,#158,.T.);
#343=EDGE_CURVE('',#280,#275,#159,.T.);
#344=EDGE_CURVE('',#281,#281,#29,.T.);
#345=EDGE_CURVE('',#282,#282,#30,.T.);
#346=EDGE_CURVE('',#283,#283,#31,.T.);
#347=EDGE_CURVE('',#284,#284,#32,.T.);
#348=EDGE_CURVE('',#285,#285,#33,.T.);
#349=EDGE_CURVE('',#286,#286,#34,.T.);
#350=EDGE_CURVE('',#287,#288,#160,.T.);
#351=EDGE_CURVE('',#288,#274,#161,.T.);
#352=EDGE_CURVE('',#271,#287,#162,.T.);
#353=EDGE_CURVE('',#281,#289,#163,.T.);
#354=EDGE_CURVE('',#289,#289,#35,.T.);
#355=EDGE_CURVE('',#282,#290,#164,.T.);
#356=EDGE_CURVE('',#290,#290,#36,.T.);
#357=EDGE_CURVE('',#283,#291,#165,.T.);
#358=EDGE_CURVE('',#291,#291,#37,.T.);
#359=EDGE_CURVE('',#284,#292,#166,.T.);
#360=EDGE_CURVE('',#292,#292,#38,.T.);
#361=EDGE_CURVE('',#285,#293,#167,.T.);
#362=EDGE_CURVE('',#293,#293,#39,.T.);
#363=EDGE_CURVE('',#286,#294,#168,.T.);
#364=EDGE_CURVE('',#294,#294,#40,.T.);
#365=EDGE_CURVE('',#269,#287,#169,.T.);
#366=EDGE_CURVE('',#268,#288,#170,.T.);
#367=EDGE_CURVE('',#295,#296,#171,.T.);
#368=EDGE_CURVE('',#295,#275,#172,.T.);
#369=EDGE_CURVE('',#296,#280,#173,.T.);
#370=EDGE_CURVE('',#296,#297,#174,.T.);
#371=EDGE_CURVE('',#297,#279,#175,.T.);
#372=EDGE_CURVE('',#297,#298,#176,.T.);
#373=EDGE_CURVE('',#298,#278,#177,.T.);
#374=EDGE_CURVE('',#298,#299,#178,.T.);
#375=EDGE_CURVE('',#299,#277,#179,.T.);
#376=EDGE_CURVE('',#300,#299,#180,.T.);
#377=EDGE_CURVE('',#300,#276,#181,.T.);
#378=EDGE_CURVE('',#295,#300,#182,.T.);
#379=ORIENTED_EDGE('',*,*,#301,.T.);
#380=ORIENTED_EDGE('',*,*,#302,.F.);
#381=ORIENTED_EDGE('',*,*,#303,.T.);
#382=ORIENTED_EDGE('',*,*,#304,.T.);
#383=ORIENTED_EDGE('',*,*,#302,.T.);
#384=ORIENTED_EDGE('',*,*,#305,.T.);
#385=ORIENTED_EDGE('',*,*,#306,.T.);
#386=ORIENTED_EDGE('',*,*,#307,.F.);
#387=ORIENTED_EDGE('',*,*,#308,.F.);
#388=ORIENTED_EDGE('',*,*,#309,.T.);
#389=ORIENTED_EDGE('',*,*,#310,.T.);
#390=ORIENTED_EDGE('',*,*,#311,.F.);
#391=ORIENTED_EDGE('',*,*,#312,.F.);
#392=ORIENTED_EDGE('',*,*,#313,.T.);
#393=ORIENTED_EDGE('',*,*,#314,.T.);
#394=ORIENTED_EDGE('',*,*,#309,.F.);
#395=ORIENTED_EDGE('',*,*,#315,.F.);
#396=ORIENTED_EDGE('',*,*,#316,.T.);
#397=ORIENTED_EDGE('',*,*,#317,.T.);
#398=ORIENTED_EDGE('',*,*,#313,.F.);
#399=ORIENTED_EDGE('',*,*,#304,.F.);
#400=ORIENTED_EDGE('',*,*,#318,.F.);
#401=ORIENTED_EDGE('',*,*,#319,.T.);
#402=ORIENTED_EDGE('',*,*,#320,.F.);
#403=ORIENTED_EDGE('',*,*,#319,.F.);
#404=ORIENTED_EDGE('',*,*,#321,.F.);
#405=ORIENTED_EDGE('',*,*,#306,.F.);
#406=ORIENTED_EDGE('',*,*,#322,.F.);
#407=ORIENTED_EDGE('',*,*,#310,.F.);
#408=ORIENTED_EDGE('',*,*,#314,.F.);
#409=ORIENTED_EDGE('',*,*,#317,.F.);
#410=ORIENTED_EDGE('',*,*,#323,.F.);
#411=ORIENTED_EDGE('',*,*,#315,.T.);
#412=ORIENTED_EDGE('',*,*,#312,.T.);
#413=ORIENTED_EDGE('',*,*,#308,.T.);
#414=ORIENTED_EDGE('',*,*,#324,.F.);
#415=ORIENTED_EDGE('',*,*,#325,.F.);
#416=ORIENTED_EDGE('',*,*,#326,.F.);
#417=ORIENTED_EDGE('',*,*,#327,.F.);
#418=ORIENTED_EDGE('',*,*,#328,.F.);
#419=ORIENTED_EDGE('',*,*,#329,.F.);
#420=ORIENTED_EDGE('',*,*,#330,.F.);
#421=ORIENTED_EDGE('',*,*,#301,.F.);
#422=ORIENTED_EDGE('',*,*,#320,.T.);
#423=ORIENTED_EDGE('',*,*,#323,.T.);
#424=ORIENTED_EDGE('',*,*,#316,.F.);
#425=ORIENTED_EDGE('',*,*,#330,.T.);
#426=ORIENTED_EDGE('',*,*,#331,.T.);
#427=ORIENTED_EDGE('',*,*,#332,.F.);
#428=ORIENTED_EDGE('',*,*,#333,.F.);
#429=ORIENTED_EDGE('',*,*,#324,.T.);
#430=ORIENTED_EDGE('',*,*,#311,.T.);
#431=ORIENTED_EDGE('',*,*,#322,.T.);
#432=ORIENTED_EDGE('',*,*,#305,.F.);
#433=ORIENTED_EDGE('',*,*,#326,.T.);
#434=ORIENTED_EDGE('',*,*,#334,.T.);
#435=ORIENTED_EDGE('',*,*,#335,.F.);
#436=ORIENTED_EDGE('',*,*,#336,.F.);
#437=ORIENTED_EDGE('',*,*,#325,.T.);
#438=ORIENTED_EDGE('',*,*,#333,.T.);
#439=ORIENTED_EDGE('',*,*,#337,.F.);
#440=ORIENTED_EDGE('',*,*,#334,.F.);
#441=ORIENTED_EDGE('',*,*,#338,.T.);
#442=ORIENTED_EDGE('',*,*,#339,.T.);
#443=ORIENTED_EDGE('',*,*,#340,.T.);
#444=ORIENTED_EDGE('',*,*,#341,.T.);
#445=ORIENTED_EDGE('',*,*,#342,.T.);
#446=ORIENTED_EDGE('',*,*,#343,.T.);
#447=ORIENTED_EDGE('',*,*,#344,.T.);
#448=ORIENTED_EDGE('',*,*,#345,.T.);
#449=ORIENTED_EDGE('',*,*,#346,.T.);
#450=ORIENTED_EDGE('',*,*,#347,.T.);
#451=ORIENTED_EDGE('',*,*,#348,.T.);
#452=ORIENTED_EDGE('',*,*,#349,.T.);
#453=ORIENTED_EDGE('',*,*,#350,.T.);
#454=ORIENTED_EDGE('',*,*,#351,.T.);
#455=ORIENTED_EDGE('',*,*,#335,.T.);
#456=ORIENTED_EDGE('',*,*,#337,.T.);
#457=ORIENTED_EDGE('',*,*,#332,.T.);
#458=ORIENTED_EDGE('',*,*,#352,.T.);
#459=ORIENTED_EDGE('',*,*,#344,.F.);
#460=ORIENTED_EDGE('',*,*,#353,.T.);
#461=ORIENTED_EDGE('',*,*,#354,.T.);
#462=ORIENTED_EDGE('',*,*,#353,.F.);
#463=ORIENTED_EDGE('',*,*,#354,.F.);
#464=ORIENTED_EDGE('',*,*,#345,.F.);
#465=ORIENTED_EDGE('',*,*,#355,.T.);
#466=ORIENTED_EDGE('',*,*,#356,.T.);
#467=ORIENTED_EDGE('',*,*,#355,.F.);
#468=ORIENTED_EDGE('',*,*,#356,.F.);
#469=ORIENTED_EDGE('',*,*,#346,.F.);
#470=ORIENTED_EDGE('',*,*,#357,.T.);
#471=ORIENTED_EDGE('',*,*,#358,.T.);
#472=ORIENTED_EDGE('',*,*,#357,.F.);
#473=ORIENTED_EDGE('',*,*,#358,.F.);
#474=ORIENTED_EDGE('',*,*,#347,.F.);
#475=ORIENTED_EDGE('',*,*,#359,.T.);
#476=ORIENTED_EDGE('',*,*,#360,.T.);
#477=ORIENTED_EDGE('',*,*,#359,.F.);
#478=ORIENTED_EDGE('',*,*,#360,.F.);
#479=ORIENTED_EDGE('',*,*,#348,.F.);
#480=ORIENTED_EDGE('',*,*,#361,.T.);
#481=ORIENTED_EDGE('',*,*,#362,.T.);
#482=ORIENTED_EDGE('',*,*,#361,.F.);
#483=ORIENTED_EDGE('',*,*,#362,.F.);
#484=ORIENTED_EDGE('',*,*,#349,.F.);
#485=ORIENTED_EDGE('',*,*,#363,.T.);
#486=ORIENTED_EDGE('',*,*,#364,.T.);
#487=ORIENTED_EDGE('',*,*,#363,.F.);
#488=ORIENTED_EDGE('',*,*,#364,.F.);
#489=ORIENTED_EDGE('',*,*,#329,.T.);
#490=ORIENTED_EDGE('',*,*,#365,.T.);
#491=ORIENTED_EDGE('',*,*,#352,.F.);
#492=ORIENTED_EDGE('',*,*,#331,.F.);
#493=ORIENTED_EDGE('',*,*,#327,.T.);
#494=ORIENTED_EDGE('',*,*,#336,.T.);
#495=ORIENTED_EDGE('',*,*,#351,.F.);
#496=ORIENTED_EDGE('',*,*,#366,.F.);
#497=ORIENTED_EDGE('',*,*,#328,.T.);
#498=ORIENTED_EDGE('',*,*,#366,.T.);
#499=ORIENTED_EDGE('',*,*,#350,.F.);
#500=ORIENTED_EDGE('',*,*,#365,.F.);
#501=ORIENTED_EDGE('',*,*,#367,.F.);
#502=ORIENTED_EDGE('',*,*,#368,.T.);
#503=ORIENTED_EDGE('',*,*,#343,.F.);
#504=ORIENTED_EDGE('',*,*,#369,.F.);
#505=ORIENTED_EDGE('',*,*,#370,.F.);
#506=ORIENTED_EDGE('',*,*,#369,.T.);
#507=ORIENTED_EDGE('',*,*,#342,.F.);
#508=ORIENTED_EDGE('',*,*,#371,.F.);
#509=ORIENTED_EDGE('',*,*,#372,.F.);
#510=ORIENTED_EDGE('',*,*,#371,.T.);
#511=ORIENTED_EDGE('',*,*,#341,.F.);
#512=ORIENTED_EDGE('',*,*,#373,.F.);
#513=ORIENTED_EDGE('',*,*,#374,.F.);
#514=ORIENTED_EDGE('',*,*,#373,.T.);
#515=ORIENTED_EDGE('',*,*,#340,.F.);
#516=ORIENTED_EDGE('',*,*,#375,.F.);
#517=ORIENTED_EDGE('',*,*,#318,.T.);
#518=ORIENTED_EDGE('',*,*,#303,.F.);
#519=ORIENTED_EDGE('',*,*,#307,.T.);
#520=ORIENTED_EDGE('',*,*,#321,.T.);
#521=ORIENTED_EDGE('',*,*,#376,.T.);
#522=ORIENTED_EDGE('',*,*,#375,.T.);
#523=ORIENTED_EDGE('',*,*,#339,.F.);
#524=ORIENTED_EDGE('',*,*,#377,.F.);
#525=ORIENTED_EDGE('',*,*,#378,.T.);
#526=ORIENTED_EDGE('',*,*,#377,.T.);
#527=ORIENTED_EDGE('',*,*,#338,.F.);
#528=ORIENTED_EDGE('',*,*,#368,.F.);
#529=ORIENTED_EDGE('',*,*,#378,.F.);
#530=ORIENTED_EDGE('',*,*,#367,.T.);
#531=ORIENTED_EDGE('',*,*,#370,.T.);
#532=ORIENTED_EDGE('',*,*,#372,.T.);
#533=ORIENTED_EDGE('',*,*,#374,.T.);
#534=ORIENTED_EDGE('',*,*,#376,.F.);
#535=PLANE('',#611);
#536=PLANE('',#612);
#537=PLANE('',#613);
#538=PLANE('',#614);
#539=PLANE('',#615);
#540=PLANE('',#616);
#541=PLANE('',#617);
#542=PLANE('',#618);
#543=PLANE('',#619);
#544=PLANE('',#620);
#545=PLANE('',#621);
#546=PLANE('',#622);
#547=PLANE('',#631);
#548=PLANE('',#634);
#549=PLANE('',#637);
#550=PLANE('',#640);
#551=PLANE('',#643);
#552=PLANE('',#646);
#553=PLANE('',#647);
#554=PLANE('',#648);
#555=PLANE('',#649);
#556=PLANE('',#650);
#557=PLANE('',#651);
#558=PLANE('',#652);
#559=PLANE('',#653);
#560=PLANE('',#654);
#561=PLANE('',#655);
#562=PLANE('',#656);
#563=ADVANCED_FACE('',(#41),#535,.T.);
#564=ADVANCED_FACE('',(#42),#536,.F.);
#565=ADVANCED_FACE('',(#43),#537,.F.);
#566=ADVANCED_FACE('',(#44),#538,.F.);
#567=ADVANCED_FACE('',(#45),#539,.F.);
#568=ADVANCED_FACE('',(#46),#540,.F.);
#569=ADVANCED_FACE('',(#47),#541,.F.);
#570=ADVANCED_FACE('',(#48),#542,.T.);
#571=ADVANCED_FACE('',(#49),#543,.T.);
#572=ADVANCED_FACE('',(#50),#544,.T.);
#573=ADVANCED_FACE('',(#51),#545,.T.);
#574=ADVANCED_FACE('',(#52,#21,#22,#23,#24,#25,#26,#27),#546,.T.);
#575=ADVANCED_FACE('',(#53),#15,.F.);
#576=ADVANCED_FACE('',(#54),#547,.T.);
#577=ADVANCED_FACE('',(#55),#16,.F.);
#578=ADVANCED_FACE('',(#56),#548,.T.);
#579=ADVANCED_FACE('',(#57),#17,.F.);
#580=ADVANCED_FACE('',(#58),#549,.T.);
#581=ADVANCED_FACE('',(#59),#18,.F.);
#582=ADVANCED_FACE('',(#60),#550,.T.);
#583=ADVANCED_FACE('',(#61),#19,.F.);
#584=ADVANCED_FACE('',(#62),#551,.T.);
#585=ADVANCED_FACE('',(#63),#20,.F.);
#586=ADVANCED_FACE('',(#64),#552,.T.);
#587=ADVANCED_FACE('',(#65),#553,.T.);
#588=ADVANCED_FACE('',(#66),#554,.T.);
#589=ADVANCED_FACE('',(#67),#555,.T.);
#590=ADVANCED_FACE('',(#68),#556,.T.);
#591=ADVANCED_FACE('',(#69),#557,.T.);
#592=ADVANCED_FACE('',(#70),#558,.T.);
#593=ADVANCED_FACE('',(#71,#28),#559,.T.);
#594=ADVANCED_FACE('',(#72),#560,.T.);
#595=ADVANCED_FACE('',(#73),#561,.T.);
#596=ADVANCED_FACE('',(#74),#562,.F.);
#597=CLOSED_SHELL('',(#563,#564,#565,#566,#567,#568,#569,#570,#571,#572,
#573,#574,#575,#576,#577,#578,#579,#580,#581,#582,#583,#584,#585,#586,#587,
#588,#589,#590,#591,#592,#593,#594,#595,#596));
#598=DERIVED_UNIT_ELEMENT(#600,1.);
#599=DERIVED_UNIT_ELEMENT(#987,-3.);
#600=(
MASS_UNIT()
NAMED_UNIT(*)
SI_UNIT(.KILO.,.GRAM.)
);
#601=DERIVED_UNIT((#598,#599));
#602=MEASURE_REPRESENTATION_ITEM('density measure',
POSITIVE_RATIO_MEASURE(7850.),#601);
#603=PROPERTY_DEFINITION_REPRESENTATION(#608,#605);
#604=PROPERTY_DEFINITION_REPRESENTATION(#609,#606);
#605=REPRESENTATION('material name',(#607),#984);
#606=REPRESENTATION('density',(#602),#984);
#607=DESCRIPTIVE_REPRESENTATION_ITEM('Steel','Steel');
#608=PROPERTY_DEFINITION('material property','material name',#994);
#609=PROPERTY_DEFINITION('material property','density of part',#994);
#610=AXIS2_PLACEMENT_3D('',#817,#657,#658);
#611=AXIS2_PLACEMENT_3D('',#818,#659,#660);
#612=AXIS2_PLACEMENT_3D('',#827,#665,#666);
#613=AXIS2_PLACEMENT_3D('',#833,#670,#671);
#614=AXIS2_PLACEMENT_3D('',#842,#676,#677);
#615=AXIS2_PLACEMENT_3D('',#848,#681,#682);
#616=AXIS2_PLACEMENT_3D('',#854,#686,#687);
#617=AXIS2_PLACEMENT_3D('',#860,#691,#692);
#618=AXIS2_PLACEMENT_3D('',#864,#696,#697);
#619=AXIS2_PLACEMENT_3D('',#878,#705,#706);
#620=AXIS2_PLACEMENT_3D('',#884,#710,#711);
#621=AXIS2_PLACEMENT_3D('',#890,#715,#716);
#622=AXIS2_PLACEMENT_3D('',#892,#718,#719);
#623=AXIS2_PLACEMENT_3D('',#906,#726,#727);
#624=AXIS2_PLACEMENT_3D('',#908,#728,#729);
#625=AXIS2_PLACEMENT_3D('',#910,#730,#731);
#626=AXIS2_PLACEMENT_3D('',#912,#732,#733);
#627=AXIS2_PLACEMENT_3D('',#914,#734,#735);
#628=AXIS2_PLACEMENT_3D('',#916,#736,#737);
#629=AXIS2_PLACEMENT_3D('',#922,#741,#742);
#630=AXIS2_PLACEMENT_3D('',#925,#744,#745);
#631=AXIS2_PLACEMENT_3D('',#926,#746,#747);
#632=AXIS2_PLACEMENT_3D('',#927,#748,#749);
#633=AXIS2_PLACEMENT_3D('',#930,#751,#752);
#634=AXIS2_PLACEMENT_3D('',#931,#753,#754);
#635=AXIS2_PLACEMENT_3D('',#932,#755,#756);
#636=AXIS2_PLACEMENT_3D('',#935,#758,#759);
#637=AXIS2_PLACEMENT_3D('',#936,#760,#761);
#638=AXIS2_PLACEMENT_3D('',#937,#762,#763);
#639=AXIS2_PLACEMENT_3D('',#940,#765,#766);
#640=AXIS2_PLACEMENT_3D('',#941,#767,#768);
#641=AXIS2_PLACEMENT_3D('',#942,#769,#770);
#642=AXIS2_PLACEMENT_3D('',#945,#772,#773);
#643=AXIS2_PLACEMENT_3D('',#946,#774,#775);
#644=AXIS2_PLACEMENT_3D('',#947,#776,#777);
#645=AXIS2_PLACEMENT_3D('',#950,#779,#780);
#646=AXIS2_PLACEMENT_3D('',#951,#781,#782);
#647=AXIS2_PLACEMENT_3D('',#952,#783,#784);
#648=AXIS2_PLACEMENT_3D('',#954,#786,#787);
#649=AXIS2_PLACEMENT_3D('',#956,#789,#790);
#650=AXIS2_PLACEMENT_3D('',#957,#791,#792);
#651=AXIS2_PLACEMENT_3D('',#963,#796,#797);
#652=AXIS2_PLACEMENT_3D('',#967,#800,#801);
#653=AXIS2_PLACEMENT_3D('',#971,#804,#805);
#654=AXIS2_PLACEMENT_3D('',#975,#808,#809);
#655=AXIS2_PLACEMENT_3D('',#979,#812,#813);
#656=AXIS2_PLACEMENT_3D('',#981,#815,#816);
#657=DIRECTION('axis',(0.,0.,1.));
#658=DIRECTION('refdir',(1.,0.,0.));
#659=DIRECTION('center_axis',(0.,0.,-1.));
#660=DIRECTION('ref_axis',(-1.,0.,0.));
#661=DIRECTION('',(0.,1.,0.));
#662=DIRECTION('',(-1.,0.,0.));
#663=DIRECTION('',(0.,-1.,0.));
#664=DIRECTION('',(-1.,0.,0.));
#665=DIRECTION('center_axis',(0.,1.,0.));
#666=DIRECTION('ref_axis',(1.,0.,0.));
#667=DIRECTION('',(0.,0.,-1.));
#668=DIRECTION('',(1.,0.,0.));
#669=DIRECTION('',(0.,0.,-1.));
#670=DIRECTION('center_axis',(0.,1.,0.));
#671=DIRECTION('ref_axis',(1.,0.,0.));
#672=DIRECTION('',(1.,0.,0.));
#673=DIRECTION('',(0.,0.,-1.));
#674=DIRECTION('',(1.,0.,0.));
#675=DIRECTION('',(0.,0.,-1.));
#676=DIRECTION('center_axis',(-1.,0.,0.));
#677=DIRECTION('ref_axis',(0.,1.,0.));
#678=DIRECTION('',(0.,1.,0.));
#679=DIRECTION('',(0.,0.,-1.));
#680=DIRECTION('',(0.,1.,0.));
#681=DIRECTION('center_axis',(-5.16382802151236E-17,-1.,0.));
#682=DIRECTION('ref_axis',(-1.,5.16382802151236E-17,0.));
#683=DIRECTION('',(-1.,5.16382802151236E-17,0.));
#684=DIRECTION('',(0.,0.,-1.));
#685=DIRECTION('',(-1.,5.16382802151236E-17,0.));
#686=DIRECTION('center_axis',(0.,-1.,0.));
#687=DIRECTION('ref_axis',(-1.,0.,0.));
#688=DIRECTION('',(0.,0.,1.));
#689=DIRECTION('',(-1.,0.,0.));
#690=DIRECTION('',(0.,0.,-1.));
#691=DIRECTION('center_axis',(0.,0.,-1.));
#692=DIRECTION('ref_axis',(-1.,0.,0.));
#693=DIRECTION('',(0.,-1.,0.));
#694=DIRECTION('',(0.,-1.,0.));
#695=DIRECTION('',(0.,-1.,0.));
#696=DIRECTION('center_axis',(0.,0.,1.));
#697=DIRECTION('ref_axis',(1.,0.,0.));
#698=DIRECTION('',(0.,-1.,0.));
#699=DIRECTION('',(0.868136700244127,-0.496325165279013,0.));
#700=DIRECTION('',(0.868136700244127,0.496325165279013,0.));
#701=DIRECTION('',(0.,1.,0.));
#702=DIRECTION('',(-0.868136700244127,0.496325165279013,0.));
#703=DIRECTION('',(-0.868136700244127,-0.496325165279013,0.));
#704=DIRECTION('',(0.,-1.,0.));
#705=DIRECTION('center_axis',(-1.,0.,0.));
#706=DIRECTION('ref_axis',(0.,-1.,0.));
#707=DIRECTION('',(0.,0.,1.));
#708=DIRECTION('',(0.,-1.,0.));
#709=DIRECTION('',(0.,0.,1.));
#710=DIRECTION('center_axis',(0.496325165279013,-0.868136700244127,0.));
#711=DIRECTION('ref_axis',(0.868136700244127,0.496325165279013,0.));
#712=DIRECTION('',(0.,0.,1.));
#713=DIRECTION('',(0.868136700244127,0.496325165279013,0.));
#714=DIRECTION('',(0.,0.,1.));
#715=DIRECTION('center_axis',(-0.496325165279013,-0.868136700244127,0.));
#716=DIRECTION('ref_axis',(0.868136700244127,-0.496325165279013,0.));
#717=DIRECTION('',(0.868136700244127,-0.496325165279013,0.));
#718=DIRECTION('center_axis',(0.,0.,1.));
#719=DIRECTION('ref_axis',(1.,0.,0.));
#720=DIRECTION('',(0.841178475376554,-0.540757591313499,0.));
#721=DIRECTION('',(0.841178475376554,0.540757591313499,0.));
#722=DIRECTION('',(0.,1.,0.));
#723=DIRECTION('',(-0.841178475376554,0.540757591313499,0.));
#724=DIRECTION('',(-0.841178475376554,-0.540757591313499,0.));
#725=DIRECTION('',(0.,-1.,0.));
#726=DIRECTION('center_axis',(0.,0.,-1.));
#727=DIRECTION('ref_axis',(1.,0.,0.));
#728=DIRECTION('center_axis',(0.,0.,-1.));
#729=DIRECTION('ref_axis',(1.,0.,0.));
#730=DIRECTION('center_axis',(0.,0.,-1.));
#731=DIRECTION('ref_axis',(1.,0.,0.));
#732=DIRECTION('center_axis',(0.,0.,-1.));
#733=DIRECTION('ref_axis',(1.,0.,0.));
#734=DIRECTION('center_axis',(0.,0.,-1.));
#735=DIRECTION('ref_axis',(1.,0.,0.));
#736=DIRECTION('center_axis',(0.,0.,-1.));
#737=DIRECTION('ref_axis',(1.,0.,0.));
#738=DIRECTION('',(-0.868136700244127,0.496325165279013,0.));
#739=DIRECTION('',(0.,1.,0.));
#740=DIRECTION('',(-0.868136700244127,-0.496325165279013,0.));
#741=DIRECTION('center_axis',(0.,0.,-1.));
#742=DIRECTION('ref_axis',(1.,0.,0.));
#743=DIRECTION('',(0.,0.,-1.));
#744=DIRECTION('center_axis',(0.,0.,-1.));
#745=DIRECTION('ref_axis',(1.,0.,0.));
#746=DIRECTION('center_axis',(0.,0.,1.));
#747=DIRECTION('ref_axis',(1.,0.,0.));
#748=DIRECTION('center_axis',(0.,0.,-1.));
#749=DIRECTION('ref_axis',(1.,0.,0.));
#750=DIRECTION('',(0.,0.,-1.));
#751=DIRECTION('center_axis',(0.,0.,-1.));
#752=DIRECTION('ref_axis',(1.,0.,0.));
#753=DIRECTION('center_axis',(0.,0.,1.));
#754=DIRECTION('ref_axis',(1.,0.,0.));
#755=DIRECTION('center_axis',(0.,0.,-1.));
#756=DIRECTION('ref_axis',(1.,0.,0.));
#757=DIRECTION('',(0.,0.,-1.));
#758=DIRECTION('center_axis',(0.,0.,-1.));
#759=DIRECTION('ref_axis',(1.,0.,0.));
#760=DIRECTION('center_axis',(0.,0.,1.));
#761=DIRECTION('ref_axis',(1.,0.,0.));
#762=DIRECTION('center_axis',(0.,0.,-1.));
#763=DIRECTION('ref_axis',(1.,0.,0.));
#764=DIRECTION('',(0.,0.,-1.));
#765=DIRECTION('center_axis',(0.,0.,-1.));
#766=DIRECTION('ref_axis',(1.,0.,0.));
#767=DIRECTION('center_axis',(0.,0.,1.));
#768=DIRECTION('ref_axis',(1.,0.,0.));
#769=DIRECTION('center_axis',(0.,0.,-1.));
#770=DIRECTION('ref_axis',(1.,0.,0.));
#771=DIRECTION('',(0.,0.,-1.));
#772=DIRECTION('center_axis',(0.,0.,-1.));
#773=DIRECTION('ref_axis',(1.,0.,0.));
#774=DIRECTION('center_axis',(0.,0.,1.));
#775=DIRECTION('ref_axis',(1.,0.,0.));
#776=DIRECTION('center_axis',(0.,0.,-1.));
#777=DIRECTION('ref_axis',(1.,0.,0.));
#778=DIRECTION('',(0.,0.,-1.));
#779=DIRECTION('center_axis',(0.,0.,-1.));
#780=DIRECTION('ref_axis',(1.,0.,0.));
#781=DIRECTION('center_axis',(0.,0.,1.));
#782=DIRECTION('ref_axis',(1.,0.,0.));
#783=DIRECTION('center_axis',(-0.496325165279013,0.868136700244127,0.));
#784=DIRECTION('ref_axis',(-0.868136700244127,-0.496325165279013,0.));
#785=DIRECTION('',(0.,0.,1.));
#786=DIRECTION('center_axis',(1.,0.,0.));
#787=DIRECTION('ref_axis',(0.,1.,0.));
#788=DIRECTION('',(0.,0.,1.));
#789=DIRECTION('center_axis',(0.496325165279013,0.868136700244127,0.));
#790=DIRECTION('ref_axis',(-0.868136700244127,0.496325165279013,0.));
#791=DIRECTION('center_axis',(-1.,0.,0.));
#792=DIRECTION('ref_axis',(0.,-1.,0.));
#793=DIRECTION('',(0.,1.,0.));
#794=DIRECTION('',(0.,0.,1.));
#795=DIRECTION('',(0.,0.,1.));
#796=DIRECTION('center_axis',(-0.540757591313499,0.841178475376554,0.));
#797=DIRECTION('ref_axis',(-0.841178475376554,-0.540757591313499,0.));
#798=DIRECTION('',(0.841178475376554,0.540757591313499,0.));
#799=DIRECTION('',(0.,0.,1.));
#800=DIRECTION('center_axis',(0.540757591313499,0.841178475376554,0.));
#801=DIRECTION('ref_axis',(-0.841178475376554,0.540757591313499,0.));
#802=DIRECTION('',(0.841178475376554,-0.540757591313499,0.));
#803=DIRECTION('',(0.,0.,1.));
#804=DIRECTION('center_axis',(1.,0.,0.));
#805=DIRECTION('ref_axis',(0.,1.,0.));
#806=DIRECTION('',(0.,-1.,0.));
#807=DIRECTION('',(0.,0.,1.));
#808=DIRECTION('center_axis',(0.540757591313499,-0.841178475376554,0.));
#809=DIRECTION('ref_axis',(0.841178475376554,0.540757591313499,0.));
#810=DIRECTION('',(0.841178475376554,0.540757591313499,0.));
#811=DIRECTION('',(0.,0.,1.));
#812=DIRECTION('center_axis',(-0.540757591313499,-0.841178475376554,0.));
#813=DIRECTION('ref_axis',(0.841178475376554,-0.540757591313499,0.));
#814=DIRECTION('',(0.841178475376554,-0.540757591313499,0.));
#815=DIRECTION('center_axis',(0.,0.,1.));
#816=DIRECTION('ref_axis',(1.,0.,0.));
#817=CARTESIAN_POINT('',(0.,0.,0.));
#818=CARTESIAN_POINT('Origin',(10.2,11.7999997362494,6.99999968707561));
#819=CARTESIAN_POINT('',(0.200000000000005,11.8,7.));
#820=CARTESIAN_POINT('',(0.200000000000005,25.3,7.));
#821=CARTESIAN_POINT('',(0.200000000000005,29.0499998681247,6.99999968707561));
#822=CARTESIAN_POINT('',(10.2,25.3,7.));
#823=CARTESIAN_POINT('',(10.2,25.3,7.));
#824=CARTESIAN_POINT('',(10.2,11.8,7.00000000000001));
#825=CARTESIAN_POINT('',(10.2,1.29999986812472,6.99999968707561));
#826=CARTESIAN_POINT('',(10.2,11.8,7.00000000000001));
#827=CARTESIAN_POINT('Origin',(0.200000000000005,25.3,7.));
#828=CARTESIAN_POINT('',(0.200000000000005,25.3,2.));
#829=CARTESIAN_POINT('',(0.200000000000005,25.3,7.));
#830=CARTESIAN_POINT('',(10.2,25.3,2.));
#831=CARTESIAN_POINT('',(10.2,25.3,2.));
#832=CARTESIAN_POINT('',(10.2,25.3,3.5));
#833=CARTESIAN_POINT('Origin',(-21.3,28.3,7.));
#834=CARTESIAN_POINT('',(-21.3,28.3,7.));
#835=CARTESIAN_POINT('',(0.200000000000005,28.3,7.));
#836=CARTESIAN_POINT('',(-35.65,28.3,7.));
#837=CARTESIAN_POINT('',(-21.3,28.3,2.));
#838=CARTESIAN_POINT('',(-21.3,28.3,7.));
#839=CARTESIAN_POINT('',(0.200000000000005,28.3,2.));
#840=CARTESIAN_POINT('',(0.200000000000005,28.3,2.));
#841=CARTESIAN_POINT('',(0.200000000000005,28.3,7.));
#842=CARTESIAN_POINT('Origin',(-21.3,8.79999999999999,7.));
#843=CARTESIAN_POINT('',(-21.3,8.79999999999999,7.));
#844=CARTESIAN_POINT('',(-21.3,13.675,7.));
#845=CARTESIAN_POINT('',(-21.3,8.79999999999999,2.));
#846=CARTESIAN_POINT('',(-21.3,8.79999999999999,7.));
#847=CARTESIAN_POINT('',(-21.3,28.3,2.));
#848=CARTESIAN_POINT('Origin',(0.200000000000005,8.79999999999999,7.));
#849=CARTESIAN_POINT('',(0.200000000000005,8.79999999999999,7.));
#850=CARTESIAN_POINT('',(-24.9,8.79999999999999,7.));
#851=CARTESIAN_POINT('',(0.200000000000005,8.79999999999999,2.));
#852=CARTESIAN_POINT('',(0.200000000000005,8.79999999999999,7.));
#853=CARTESIAN_POINT('',(0.200000000000005,8.79999999999999,2.));
#854=CARTESIAN_POINT('Origin',(10.2,11.8,7.));
#855=CARTESIAN_POINT('',(10.2,11.8,2.));
#856=CARTESIAN_POINT('',(10.2,11.8,3.5));
#857=CARTESIAN_POINT('',(0.200000000000005,11.8,2.));
#858=CARTESIAN_POINT('',(0.200000000000005,11.8,2.));
#859=CARTESIAN_POINT('',(0.200000000000005,11.8,7.));
#860=CARTESIAN_POINT('Origin',(-5.55,18.55,2.));
#861=CARTESIAN_POINT('',(10.2,4.67499999999999,2.));
#862=CARTESIAN_POINT('',(0.200000000000005,25.3,2.));
#863=CARTESIAN_POINT('',(0.200000000000005,11.8,2.));
#864=CARTESIAN_POINT('Origin',(-50.,18.55,7.));
#865=CARTESIAN_POINT('',(0.200000000000005,46.3,7.));
#866=CARTESIAN_POINT('',(0.200000000000005,32.425,7.));
#867=CARTESIAN_POINT('',(-50.,75.,7.));
#868=CARTESIAN_POINT('',(-37.8384658749361,68.0470910480212,7.));
#869=CARTESIAN_POINT('',(-100.2,46.3,7.));
#870=CARTESIAN_POINT('',(-87.2615341250639,53.6970910480212,7.));
#871=CARTESIAN_POINT('',(-100.2,-9.20000000000001,7.));
#872=CARTESIAN_POINT('',(-100.2,4.67499999999999,7.));
#873=CARTESIAN_POINT('',(-50.,-37.9,7.));
#874=CARTESIAN_POINT('',(-62.1615341250639,-30.9470910480212,7.));
#875=CARTESIAN_POINT('',(0.200000000000005,-9.20000000000001,7.));
#876=CARTESIAN_POINT('',(-12.7384658749361,-16.5970910480212,7.));
#877=CARTESIAN_POINT('',(0.200000000000005,32.425,7.));
#878=CARTESIAN_POINT('Origin',(0.200000000000004,46.3,0.));
#879=CARTESIAN_POINT('',(0.200000000000005,-9.20000000000002,14.));
#880=CARTESIAN_POINT('',(0.200000000000004,-9.20000000000001,0.));
#881=CARTESIAN_POINT('',(0.200000000000005,46.3,14.));
#882=CARTESIAN_POINT('',(0.200000000000004,46.3,14.));
#883=CARTESIAN_POINT('',(0.200000000000004,46.3,0.));
#884=CARTESIAN_POINT('Origin',(-100.2,46.3,0.));
#885=CARTESIAN_POINT('',(-50.,75.,14.));
#886=CARTESIAN_POINT('',(-50.,75.,0.));
#887=CARTESIAN_POINT('',(-100.2,46.3,14.));
#888=CARTESIAN_POINT('',(-100.2,46.3,14.));
#889=CARTESIAN_POINT('',(-100.2,46.3,0.));
#890=CARTESIAN_POINT('Origin',(-50.,75.,0.));
#891=CARTESIAN_POINT('',(-50.,75.,14.));
#892=CARTESIAN_POINT('Origin',(-50.,18.55,14.));
#893=CARTESIAN_POINT('',(-110.2,-9.20000000000002,14.));
#894=CARTESIAN_POINT('',(-50.,-47.9,14.));
#895=CARTESIAN_POINT('',(-110.2,-9.20000000000001,14.));
#896=CARTESIAN_POINT('',(10.2,-9.20000000000002,14.));
#897=CARTESIAN_POINT('',(-50.,-47.9,14.));
#898=CARTESIAN_POINT('',(10.2,46.3,14.));
#899=CARTESIAN_POINT('',(10.2,46.3,14.));
#900=CARTESIAN_POINT('',(-50.,85.,14.));
#901=CARTESIAN_POINT('',(-50.,85.,14.));
#902=CARTESIAN_POINT('',(-110.2,46.3,14.));
#903=CARTESIAN_POINT('',(-110.2,46.3,14.));
#904=CARTESIAN_POINT('',(-110.2,-9.20000000000001,14.));
#905=CARTESIAN_POINT('',(-52.3499988824129,79.9999981001019,14.));
#906=CARTESIAN_POINT('Origin',(-49.9999988824129,79.9999981001019,14.));
#907=CARTESIAN_POINT('',(-107.549997536838,41.2999989651144,14.));
#908=CARTESIAN_POINT('Origin',(-105.199997536838,41.2999989651144,14.));
#909=CARTESIAN_POINT('',(-107.549997536838,-4.19999979436398,14.));
#910=CARTESIAN_POINT('Origin',(-105.199997536838,-4.19999979436398,14.));
#911=CARTESIAN_POINT('',(-52.3499988824129,-42.8999989293516,14.));
#912=CARTESIAN_POINT('Origin',(-49.9999988824129,-42.8999989293516,14.));
#913=CARTESIAN_POINT('',(2.84999977201223,-4.19999979436398,14.));
#914=CARTESIAN_POINT('Origin',(5.19999977201223,-4.19999979436398,14.));
#915=CARTESIAN_POINT('',(2.84999977201223,41.2999989651144,14.));
#916=CARTESIAN_POINT('Origin',(5.19999977201223,41.2999989651144,14.));
#917=CARTESIAN_POINT('',(-50.,-37.9,14.));
#918=CARTESIAN_POINT('',(-100.2,-9.20000000000002,14.));
#919=CARTESIAN_POINT('',(-100.2,-9.20000000000001,14.));
#920=CARTESIAN_POINT('',(-100.2,-9.20000000000001,14.));
#921=CARTESIAN_POINT('',(0.200000000000004,-9.20000000000001,14.));
#922=CARTESIAN_POINT('Origin',(-49.9999988824129,79.9999981001019,10.));
#923=CARTESIAN_POINT('',(-52.3499988824129,79.9999981001019,6.));
#924=CARTESIAN_POINT('',(-52.3499988824129,79.9999981001019,10.));
#925=CARTESIAN_POINT('Origin',(-49.9999988824129,79.9999981001019,6.));
#926=CARTESIAN_POINT('Origin',(-49.9999988824129,79.9999981001019,6.));
#927=CARTESIAN_POINT('Origin',(-105.199997536838,41.2999989651144,10.));
#928=CARTESIAN_POINT('',(-107.549997536838,41.2999989651144,6.));
#929=CARTESIAN_POINT('',(-107.549997536838,41.2999989651144,10.));
#930=CARTESIAN_POINT('Origin',(-105.199997536838,41.2999989651144,6.));
#931=CARTESIAN_POINT('Origin',(-105.199997536838,41.2999989651144,6.));
#932=CARTESIAN_POINT('Origin',(-105.199997536838,-4.19999979436398,10.));
#933=CARTESIAN_POINT('',(-107.549997536838,-4.19999979436398,6.));
#934=CARTESIAN_POINT('',(-107.549997536838,-4.19999979436397,10.));
#935=CARTESIAN_POINT('Origin',(-105.199997536838,-4.19999979436398,6.));
#936=CARTESIAN_POINT('Origin',(-105.199997536838,-4.19999979436398,6.));
#937=CARTESIAN_POINT('Origin',(-49.9999988824129,-42.8999989293516,10.));
#938=CARTESIAN_POINT('',(-52.3499988824129,-42.8999989293516,6.));
#939=CARTESIAN_POINT('',(-52.3499988824129,-42.8999989293516,10.));
#940=CARTESIAN_POINT('Origin',(-49.9999988824129,-42.8999989293516,6.));
#941=CARTESIAN_POINT('Origin',(-49.9999988824129,-42.8999989293516,6.));
#942=CARTESIAN_POINT('Origin',(5.19999977201223,-4.19999979436398,10.));
#943=CARTESIAN_POINT('',(2.84999977201223,-4.19999979436398,6.));
#944=CARTESIAN_POINT('',(2.84999977201223,-4.19999979436397,10.));
#945=CARTESIAN_POINT('Origin',(5.19999977201223,-4.19999979436398,6.));
#946=CARTESIAN_POINT('Origin',(5.19999977201223,-4.19999979436398,6.));
#947=CARTESIAN_POINT('Origin',(5.19999977201223,41.2999989651144,10.));
#948=CARTESIAN_POINT('',(2.84999977201223,41.2999989651144,6.));
#949=CARTESIAN_POINT('',(2.84999977201223,41.2999989651144,10.));
#950=CARTESIAN_POINT('Origin',(5.19999977201223,41.2999989651144,6.));
#951=CARTESIAN_POINT('Origin',(5.19999977201223,41.2999989651144,6.));
#952=CARTESIAN_POINT('Origin',(0.200000000000004,-9.20000000000001,0.));
#953=CARTESIAN_POINT('',(-50.,-37.9,0.));
#954=CARTESIAN_POINT('Origin',(-100.2,-9.20000000000001,0.));
#955=CARTESIAN_POINT('',(-100.2,-9.20000000000001,0.));
#956=CARTESIAN_POINT('Origin',(-50.,-37.9,0.));
#957=CARTESIAN_POINT('Origin',(-110.2,46.3,0.));
#958=CARTESIAN_POINT('',(-110.2,-9.20000000000001,0.));
#959=CARTESIAN_POINT('',(-110.2,46.3,0.));
#960=CARTESIAN_POINT('',(-110.2,-9.20000000000001,0.));
#961=CARTESIAN_POINT('',(-110.2,-9.20000000000001,0.));
#962=CARTESIAN_POINT('',(-110.2,46.3,0.));
#963=CARTESIAN_POINT('Origin',(-50.,85.,0.));
#964=CARTESIAN_POINT('',(-50.,85.,0.));
#965=CARTESIAN_POINT('',(-110.2,46.3,0.));
#966=CARTESIAN_POINT('',(-50.,85.,0.));
#967=CARTESIAN_POINT('Origin',(10.2,46.3,0.));
#968=CARTESIAN_POINT('',(10.2,46.3,0.));
#969=CARTESIAN_POINT('',(-50.,85.,0.));
#970=CARTESIAN_POINT('',(10.2,46.3,0.));
#971=CARTESIAN_POINT('Origin',(10.2,-9.20000000000001,0.));
#972=CARTESIAN_POINT('',(10.2,-9.20000000000001,0.));
#973=CARTESIAN_POINT('',(10.2,46.3,0.));
#974=CARTESIAN_POINT('',(10.2,-9.20000000000001,0.));
#975=CARTESIAN_POINT('Origin',(-50.,-47.9,0.));
#976=CARTESIAN_POINT('',(-50.,-47.9,0.));
#977=CARTESIAN_POINT('',(-50.,-47.9,0.));
#978=CARTESIAN_POINT('',(-50.,-47.9,0.));
#979=CARTESIAN_POINT('Origin',(-110.2,-9.20000000000001,0.));
#980=CARTESIAN_POINT('',(-110.2,-9.20000000000001,0.));
#981=CARTESIAN_POINT('Origin',(-50.,18.55,0.));
#982=UNCERTAINTY_MEASURE_WITH_UNIT(LENGTH_MEASURE(0.01),#986,
'DISTANCE_ACCURACY_VALUE',
'Maximum model space distance between geometric entities at asserted c
onnectivities');
#983=UNCERTAINTY_MEASURE_WITH_UNIT(LENGTH_MEASURE(0.01),#986,
'DISTANCE_ACCURACY_VALUE',
'Maximum model space distance between geometric entities at asserted c
onnectivities');
#984=(
GEOMETRIC_REPRESENTATION_CONTEXT(3)
GLOBAL_UNCERTAINTY_ASSIGNED_CONTEXT((#982))
GLOBAL_UNIT_ASSIGNED_CONTEXT((#986,#988,#989))
REPRESENTATION_CONTEXT('','3D')
);
#985=(
GEOMETRIC_REPRESENTATION_CONTEXT(3)
GLOBAL_UNCERTAINTY_ASSIGNED_CONTEXT((#983))
GLOBAL_UNIT_ASSIGNED_CONTEXT((#986,#988,#989))
REPRESENTATION_CONTEXT('','3D')
);
#986=(
LENGTH_UNIT()
NAMED_UNIT(*)
SI_UNIT(.MILLI.,.METRE.)
);
#987=(
LENGTH_UNIT()
NAMED_UNIT(*)
SI_UNIT($,.METRE.)
);
#988=(
NAMED_UNIT(*)
PLANE_ANGLE_UNIT()
SI_UNIT($,.RADIAN.)
);
#989=(
NAMED_UNIT(*)
SI_UNIT($,.STERADIAN.)
SOLID_ANGLE_UNIT()
);
#990=SHAPE_DEFINITION_REPRESENTATION(#991,#992);
#991=PRODUCT_DEFINITION_SHAPE('',$,#994);
#992=SHAPE_REPRESENTATION('',(#610),#984);
#993=PRODUCT_DEFINITION_CONTEXT('part definition',#998,'design');
#994=PRODUCT_DEFINITION('2026-07-06-01-26-08-540','BeePad2',#995,#993);
#995=PRODUCT_DEFINITION_FORMATION('',$,#1000);
#996=PRODUCT_RELATED_PRODUCT_CATEGORY('BeePad2','BeePad2',(#1000));
#997=APPLICATION_PROTOCOL_DEFINITION('international standard',
'automotive_design',2009,#998);
#998=APPLICATION_CONTEXT(
'Core Data for Automotive Mechanical Design Process');
#999=PRODUCT_CONTEXT('part definition',#998,'mechanical');
#1000=PRODUCT('2026-07-06-01-26-08-540','BeePad2',$,(#999));
#1001=PRESENTATION_STYLE_ASSIGNMENT((#1003));
#1002=PRESENTATION_STYLE_ASSIGNMENT((#1004));
#1003=SURFACE_STYLE_USAGE(.BOTH.,#1005);
#1004=SURFACE_STYLE_USAGE(.BOTH.,#1006);
#1005=SURFACE_SIDE_STYLE('',(#1007));
#1006=SURFACE_SIDE_STYLE('',(#1008));
#1007=SURFACE_STYLE_FILL_AREA(#1009);
#1008=SURFACE_STYLE_FILL_AREA(#1010);
#1009=FILL_AREA_STYLE('Steel - Satin',(#1011));
#1010=FILL_AREA_STYLE('Powder Coat (Yellow)',(#1012));
#1011=FILL_AREA_STYLE_COLOUR('Steel - Satin',#1013);
#1012=FILL_AREA_STYLE_COLOUR('Powder Coat (Yellow)',#1014);
#1013=COLOUR_RGB('Steel - Satin',0.627450980392157,0.627450980392157,0.627450980392157);
#1014=COLOUR_RGB('Powder Coat (Yellow)',0.909803921568627,0.67843137254902,
0.137254901960784);
ENDSEC;
END-ISO-10303-21;
